<?xml version="1.0" encoding="UTF-8"?>
<svg version="1.1" xmlns="http://www.w3.org/2000/svg" width="2047" height="2049">
<path d="M0 0 C1.17999258 0.00040031 1.17999258 0.00040031 2.38382339 0.00080872 C25.69777914 0.01072969 48.95604038 0.13275743 72.20831299 2.00390625 C74.67083553 2.20118613 77.13394213 2.38983973 79.59716797 2.578125 C168.7519531 9.48375399 256.90618222 27.67734274 639.5 223.1875 C640.08120605 223.65526855 640.66241211 224.12303711 641.26123047 224.60498047 C650.82126057 232.30011265 660.2341418 240.14066958 669.5 248.1875 C670.25796875 248.84363281 671.0159375 249.49976563 671.796875 250.17578125 C676.18297115 253.9916849 680.50288385 257.87930025 684.8125 261.78125 C686.91818911 263.66657629 689.03996867 265.52648518 691.17431641 267.37890625 C695.32921167 271.01351072 699.38176838 274.74492428 703.3984375 278.53125 C704.12727142 279.21803833 704.85610535 279.90482666 705.60702515 280.61242676 C713.17281475 287.77512972 720.56836633 295.10413554 727.92431641 302.48144531 C730.15541572 304.71798995 732.39192947 306.949023 734.62890625 309.1796875 C736.07844632 310.62988723 737.52767679 312.08039651 738.9765625 313.53125 C739.63081207 314.18347534 740.28506165 314.83570068 740.95913696 315.50769043 C744.76181212 319.32953482 748.38441605 323.25837062 751.89831543 327.34770203 C754.63018931 330.48570818 757.51334064 333.48085496 760.375 336.5 C765.29167008 341.72351502 769.94695705 347.0397919 774.42578125 352.64453125 C776.54087596 355.23761347 778.74518096 357.715349 781 360.1875 C785.70468015 365.36264816 790.10436343 370.7495284 794.5 376.1875 C795.51082767 377.41870087 796.52260049 378.64912618 797.53515625 379.87890625 C804.56816752 388.44014089 811.35011851 397.1493675 817.93017578 406.06298828 C819.57161994 408.2844264 821.22100671 410.49981964 822.87109375 412.71484375 C870.27471993 476.49850188 910.71714445 545.65694839 1023.5 971.1875 C1023.55784668 972.2172998 1023.61569336 973.24709961 1023.67529297 974.30810547 C1028.84322269 1068.54231365 1019.26326227 1163.55556104 973.5 1344.1875 C973.25852234 1344.91946594 973.01704468 1345.65143188 972.76824951 1346.40557861 C965.985684 1366.92860449 958.70419631 1387.1832383 950.5 1407.1875 C950.06896973 1408.24098633 949.63793945 1409.29447266 949.19384766 1410.37988281 C933.41676224 1448.74055274 915.92520904 1486.66428228 895.03564453 1522.52636719 C893.44274222 1525.28672255 891.88696829 1528.0653124 890.33984375 1530.8515625 C872.77851892 1562.45069337 852.77619491 1592.95642892 831.5 1622.1875 C830.96536133 1622.92500488 830.43072266 1623.66250977 829.87988281 1624.42236328 C814.07608354 1646.1851933 797.32136138 1667.12047594 779.86962891 1687.57958984 C778.43414579 1689.2648112 777.0041151 1690.95456809 775.57421875 1692.64453125 C769.22439306 1700.12744209 762.6952561 1707.40804675 755.99560547 1714.57861328 C754.49917249 1716.18839019 753.0153805 1717.80890976 751.53515625 1719.43359375 C745.84413791 1725.66986496 740.01921092 1731.72379149 734.01074219 1737.65527344 C731.15106977 1740.49069667 728.41148018 1743.35654932 725.8125 1746.4375 C722.63220737 1750.17628304 719.06042798 1753.32500913 715.37890625 1756.5625 C711.93097807 1759.70633682 708.65440856 1762.99471539 705.375 1766.3125 C701.23962575 1770.48738419 697.09824363 1774.56110154 692.609375 1778.359375 C690.31329065 1780.34931477 688.09635199 1782.41054228 685.87646484 1784.48461914 C680.44342726 1789.56032338 674.90340405 1794.39426001 669.1015625 1799.05078125 C666.55013271 1801.14632494 664.11673227 1803.32713155 661.6875 1805.5625 C657.31491564 1809.54258466 652.75830709 1813.20097497 648.09008789 1816.82202148 C644.22442218 1819.82278782 640.41092864 1822.87711153 636.62792969 1825.98144531 C628.10384931 1832.97609537 619.39111474 1839.66692851 610.5 1846.1875 C609.81244629 1846.69216797 609.12489258 1847.19683594 608.41650391 1847.71679688 C590.1603643 1861.08131911 571.65833689 1874.14377787 552.5 1886.1875 C551.7044873 1886.68813965 550.90897461 1887.1887793 550.08935547 1887.70458984 C531.72274658 1899.23200229 513.13247755 1910.41099056 494.08447266 1920.77978516 C492.24111986 1921.78382561 490.39987386 1922.79173803 488.56005859 1923.80224609 C448.27293926 1945.90158144 406.52748678 1965.046519 363.5 1981.1875 C362.83178223 1981.4382428 362.16356445 1981.6889856 361.47509766 1981.94732666 C280.72824563 2012.18998739 196.44571659 2032.35296512 99.9375 2042.4375 C99.15034607 2042.5147229 98.36319214 2042.5919458 97.55218506 2042.67150879 C91.54015942 2043.25240377 85.5232168 2043.73842936 79.5 2044.1875 C77.770914 2044.3188031 77.770914 2044.3188031 76.00689697 2044.45275879 C52.92710206 2046.15178892 29.91460191 2046.50344625 6.77783203 2046.44824219 C1.96499603 2046.43684869 -2.84761864 2046.44363607 -7.66044712 2046.45512104 C-31.01478421 2046.50237436 -54.20969095 2045.94430946 -77.5 2044.1875 C-79.00001556 2044.07761749 -79.00001556 2044.07761749 -80.53033447 2043.96551514 C-86.21462631 2043.54317126 -91.88933296 2043.05129729 -97.5625 2042.5 C-98.40732941 2042.41890991 -99.25215881 2042.33781982 -100.12258911 2042.25427246 C-187.19698302 2033.78606104 -273.32717265 2014.1499624 -516.55664062 1906.93359375 C-519.4932037 1905.19153178 -522.44084495 1903.46956775 -525.390625 1901.75 C-567.37024696 1877.11453637 -607.03029447 1848.43040722 -644.69580078 1817.65966797 C-646.28273046 1816.36478489 -647.87348737 1815.07459522 -649.46484375 1813.78515625 C-659.92913594 1805.28772074 -670.13744066 1796.514674 -680.0703125 1787.40234375 C-682.10515415 1785.54743183 -684.16321247 1783.73321202 -686.25 1781.9375 C-695.65381071 1773.74770584 -704.67361333 1765.11872873 -713.42602539 1756.23999023 C-716.08677592 1753.55386038 -718.79930443 1751.00154705 -721.6875 1748.5625 C-725.42193509 1745.37679823 -728.57130922 1741.81487177 -731.80859375 1738.1328125 C-735.13576076 1734.49176181 -738.61925598 1731.03057546 -742.125 1727.5625 C-746.47666098 1723.24909538 -750.75286134 1718.94776586 -754.70703125 1714.26171875 C-756.68226158 1711.97664837 -758.73192949 1709.77396317 -760.79394531 1707.56738281 C-765.76887606 1702.24214811 -770.52095273 1696.82219978 -775.0859375 1691.13671875 C-778.00672496 1687.56844281 -781.02939036 1684.0977722 -784.0625 1680.625 C-789.02721969 1674.92363932 -793.85134863 1669.15133922 -798.5 1663.1875 C-799.52336954 1661.88406122 -800.54681385 1660.58068115 -801.5703125 1659.27734375 C-807.83147673 1651.28436813 -814.01752337 1643.23603366 -820.125 1635.125 C-820.68517822 1634.3839502 -821.24535645 1633.64290039 -821.82250977 1632.87939453 C-832.17504211 1619.07111003 -841.88321092 1604.80484622 -851.4375 1590.4375 C-851.9594696 1589.65346802 -852.48143921 1588.86943604 -853.01922607 1588.06164551 C-861.09594748 1575.91990298 -869.04374402 1563.72304204 -876.5 1551.1875 C-877.33700439 1549.78298584 -877.33700439 1549.78298584 -878.19091797 1548.35009766 C-891.05021134 1526.69848809 -902.98888807 1504.58099827 -914.5 1482.1875 C-914.95729492 1481.3015918 -915.41458984 1480.41568359 -915.88574219 1479.50292969 C-955.77038249 1402.00210594 -984.02473172 1317.44965058 -1021.5 1076.1875 C-1021.55784668 1075.17864746 -1021.61569336 1074.16979492 -1021.67529297 1073.13037109 C-1023.8721499 1033.58042746 -1023.04409985 993.69770132 -1020.5 954.1875 C-1020.4271579 953.04260101 -1020.4271579 953.04260101 -1020.35284424 951.87457275 C-1014.64459918 863.30207648 -996.46807134 775.70588497 -931.5 600.1875 C-931.21854126 599.56164001 -930.93708252 598.93578003 -930.64709473 598.29095459 C-912.85666238 558.80383437 -892.18799881 521.05843084 -869.5 484.1875 C-868.98244141 483.34477539 -868.46488281 482.50205078 -867.93164062 481.63378906 C-845.18798204 444.66331442 -819.4170415 409.58611659 -791.97216797 375.99169922 C-790.67728489 374.40476954 -789.38709522 372.81401263 -788.09765625 371.22265625 C-779.44130634 360.56266657 -770.51638626 350.16016987 -761.16796875 340.1015625 C-759.17445005 337.9241614 -757.22504618 335.72903824 -755.29223633 333.49902344 C-751.66415514 329.34774001 -747.93776102 325.30062401 -744.15625 321.2890625 C-743.46946167 320.56022858 -742.78267334 319.83139465 -742.07507324 319.08047485 C-734.91237028 311.51468525 -727.58336446 304.11913367 -720.20605469 296.76318359 C-717.96951005 294.53208428 -715.738477 292.29557053 -713.5078125 290.05859375 C-712.05761277 288.60905368 -710.60710349 287.15982321 -709.15625 285.7109375 C-708.50402466 285.05668793 -707.85179932 284.40243835 -707.17980957 283.72836304 C-703.36095017 279.9286579 -699.43547133 276.30807905 -695.35009766 272.79605103 C-692.15150309 270.0150613 -689.08408211 267.0940723 -686 264.1875 C-680.91421139 259.42152134 -675.81290334 254.70093789 -670.5 250.1875 C-669.58605469 249.40632812 -668.67210937 248.62515625 -667.73046875 247.8203125 C-654.22883762 236.31418535 -640.5437239 225.02666133 -626.5 214.1875 C-625.71608887 213.58147949 -624.93217773 212.97545898 -624.12451172 212.35107422 C-613.1940514 203.91662768 -602.17007172 195.66879661 -590.82275391 187.80371094 C-588.24220025 186.00811863 -585.67366664 184.1960297 -583.10546875 182.3828125 C-570.99815198 173.85959998 -558.72198409 165.68670756 -546.16015625 157.84912109 C-543.58027726 156.23764381 -541.00837645 154.61407073 -538.4375 152.98828125 C-496.73617869 126.74475581 -452.7350418 103.70103747 -407.5 84.1875 C-406.81721985 83.89230469 -406.1344397 83.59710938 -405.43096924 83.29296875 C-383.15461449 73.67350292 -360.65373837 64.90600922 -337.72735596 56.96032715 C-335.52124752 56.19487227 -333.31690635 55.42449859 -331.11279297 54.65332031 C-251.72788787 26.95349233 -168.08443645 9.60180414 -76.1875 2.5 C-75.35920685 2.43906158 -74.5309137 2.37812317 -73.67752075 2.31533813 C-67.95390456 1.900364 -62.22839748 1.52984434 -56.5 1.1875 C-55.69411438 1.1380423 -54.88822876 1.08858459 -54.05792236 1.03762817 C-36.05042508 -0.03336115 -18.03204845 -0.01371372 0 0 Z " fill="#E84142" transform="translate(1022.5,0.8125)"/>
<path d="M0 0 C18.01088102 12.37599886 28.2837835 36.28344167 38.72265625 54.6484375 C40.24211905 57.3105067 41.76330623 59.9715841 43.28466797 62.63256836 C44.24793508 64.31787695 45.21049366 66.00359069 46.17236328 67.68969727 C50.08326182 74.54317403 54.02524992 81.37843629 57.97265625 88.2109375 C65.25742982 100.82318616 72.48770757 113.46617248 79.70654297 126.11621094 C81.71201439 129.63024429 83.71904156 133.14338719 85.7265625 136.65625 C86.22132835 137.52203171 86.22132835 137.52203171 86.72608948 138.40530396 C88.38990984 141.31667835 90.05390919 144.22795038 91.71801758 147.13916016 C94.73926878 152.42497578 97.7593943 157.7114187 100.7739563 163.00105286 C102.464447 165.96727144 104.1558156 168.9329887 105.84765625 171.8984375 C106.18021423 172.4813858 106.51277222 173.06433411 106.85540771 173.66494751 C111.47053672 181.75089719 116.13887437 189.80416521 120.84765625 197.8359375 C126.1752571 206.92464079 131.35271072 216.08911563 136.47314453 225.29589844 C140.46215846 232.4500719 144.56428766 239.52913607 148.72265625 246.5859375 C159.36843342 264.72595871 169.89529851 283.08526836 177.72265625 302.6484375 C178.32980469 304.164375 178.32980469 304.164375 178.94921875 305.7109375 C180.02493258 308.66709764 180.90566012 311.61023316 181.72265625 314.6484375 C181.903125 315.30344238 182.08359375 315.95844727 182.26953125 316.63330078 C198.08516707 376.14230211 167.10988066 427.04010069 138.64453125 476.5546875 C135.49845266 482.02946025 132.38952969 487.52493503 129.28515625 493.0234375 C128.74262207 493.98403076 128.20008789 494.94462402 127.64111328 495.93432617 C125.4736533 499.77289844 123.30719973 503.61203721 121.14160156 507.45166016 C115.06092138 518.23208101 108.95686986 528.99837218 102.80670166 539.73931885 C96.16856884 551.3327502 89.60470257 562.96565658 83.08984375 574.62890625 C78.19962021 583.38079795 73.25742623 592.10325222 68.31835938 600.82763672 C66.73749815 603.62220077 65.15931482 606.41825909 63.58203125 609.21484375 C58.0199885 619.07350004 52.43131666 628.91622333 46.80670166 638.73931885 C40.16479912 650.33933396 33.59770502 661.9791395 27.078125 673.6484375 C18.73048996 688.58707063 10.26523389 703.45814294 1.7628479 718.30908203 C-4.19183256 728.71362693 -10.06409025 739.16296535 -15.91015625 749.62890625 C-20.80037979 758.38079795 -25.74257377 767.10325222 -30.68164062 775.82763672 C-32.26250185 778.62220077 -33.84068518 781.41825909 -35.41796875 784.21484375 C-40.9800115 794.07350004 -46.56868334 803.91622333 -52.19329834 813.73931885 C-58.83520088 825.33933396 -65.40229498 836.9791395 -71.921875 848.6484375 C-80.26971586 863.58743895 -88.73286177 878.46031466 -97.23815918 893.31008911 C-102.01056558 901.6447092 -106.72710422 910.00884077 -111.40234375 918.3984375 C-144.785456 978.1968473 -144.785456 978.1968473 -164.27734375 998.6484375 C-164.77935303 999.18178711 -165.2813623 999.71513672 -165.79858398 1000.26464844 C-170.16278673 1004.78567508 -174.84353851 1008.52016192 -179.96484375 1012.1484375 C-180.76229004 1012.71522217 -181.55973633 1013.28200684 -182.38134766 1013.8659668 C-199.17189525 1025.68587421 -218.73531249 1035.12549208 -239.21484375 1038.2734375 C-239.94896484 1038.39460938 -240.68308594 1038.51578125 -241.43945312 1038.640625 C-251.20695651 1040.20751308 -260.80007655 1040.79582528 -270.68977356 1040.78215027 C-272.51183784 1040.7855486 -272.51183784 1040.7855486 -274.37071151 1040.78901559 C-277.7166636 1040.79422375 -281.06256165 1040.79500511 -284.4085139 1040.79382122 C-288.02772772 1040.7936161 -291.64693369 1040.79914672 -295.2661438 1040.80387878 C-302.34915469 1040.81216351 -309.43215725 1040.81493269 -316.51517258 1040.81549116 C-322.280392 1040.81596761 -328.0456087 1040.81802876 -333.81082726 1040.82119179 C-350.19128923 1040.82999445 -366.57174467 1040.83461208 -382.95220903 1040.83386131 C-383.83414949 1040.83382136 -384.71608994 1040.8337814 -385.62475586 1040.83374023 C-386.50778614 1040.83369935 -387.39081642 1040.83365847 -388.3006052 1040.83361635 C-402.5865172 1040.83321058 -416.87240275 1040.84276388 -431.15830711 1040.8568786 C-445.86131832 1040.87128954 -460.56431668 1040.87814612 -475.26733512 1040.87728482 C-483.50792952 1040.87695435 -491.74849624 1040.87963492 -499.98908424 1040.89046288 C-507.01063988 1040.89963045 -514.0321553 1040.90169255 -521.05371437 1040.89495345 C-524.62695878 1040.89171873 -528.20012632 1040.89151893 -531.77336311 1040.9003067 C-544.28278118 1040.92903067 -556.74396819 1040.91728829 -569.21000671 1039.76997375 C-570.45743423 1039.65603343 -570.45743423 1039.65603343 -571.73006231 1039.53979129 C-584.68706931 1038.16084553 -595.65026001 1031.85103782 -603.8671875 1021.734375 C-609.91522753 1012.78796676 -613.63535245 1003.6748965 -613.58984375 992.8984375 C-613.60595703 992.15078125 -613.62207031 991.403125 -613.63867188 990.6328125 C-613.64731881 980.53319052 -609.75142962 971.90457816 -605.40234375 962.9609375 C-604.92112061 961.96473389 -604.43989746 960.96853027 -603.9440918 959.94213867 C-599.06039629 949.97658006 -593.63205328 940.35172247 -588.07226562 930.75146484 C-585.14886293 925.69754098 -582.25512955 920.62664602 -579.35910034 915.55700684 C-578.33990308 913.77354133 -577.31957752 911.99072515 -576.29907227 910.20800781 C-571.8319142 902.39970284 -567.41330338 894.56517717 -563.02734375 886.7109375 C-556.84948319 875.64813645 -550.58069656 864.64009568 -544.27734375 853.6484375 C-541.65056455 849.06612093 -539.02540845 844.482881 -536.40234375 839.8984375 C-536.0628772 839.30529755 -535.72341064 838.71215759 -535.37365723 838.1010437 C-530.58332427 829.72762239 -525.84810737 821.32537221 -521.15234375 812.8984375 C-516.66263972 804.84129371 -512.079148 796.8483451 -507.40234375 788.8984375 C-501.84826866 779.45353975 -496.52056297 769.89677005 -491.25839233 760.28778076 C-486.15268401 750.97073216 -480.88838578 741.76010998 -475.49609375 732.60546875 C-471.13785828 725.18362105 -466.93482669 717.68434351 -462.77734375 710.1484375 C-458.07382504 701.62278017 -453.28162218 693.16322951 -448.33984375 684.7734375 C-443.16317098 675.98131073 -438.17739637 667.09641071 -433.27734375 658.1484375 C-427.8356945 648.21145612 -422.24956118 638.37533232 -416.50048828 628.61206055 C-411.43889838 619.9903947 -406.58210198 611.26204737 -401.74633789 602.51220703 C-397.45528443 594.75244494 -393.09942153 587.03398796 -388.68603516 579.34326172 C-385.10677003 573.10552339 -381.55994652 566.85021162 -378.02734375 560.5859375 C-373.49969414 552.5594319 -368.939814 544.55188608 -364.36010742 536.55499268 C-358.86884532 526.96630821 -353.41475184 517.35853984 -348.02734375 507.7109375 C-341.84948319 496.64813645 -335.58069656 485.64009568 -329.27734375 474.6484375 C-326.65056461 470.06612104 -324.02525863 465.48296666 -321.40234375 460.8984375 C-321.06354187 460.30629456 -320.72473999 459.71415161 -320.37567139 459.10406494 C-314.95617892 449.62776707 -309.60385067 440.11534524 -304.28125 430.58422852 C-298.68253212 420.56567996 -292.98666532 410.6042361 -287.27734375 400.6484375 C-284.65056455 396.06612093 -282.02540845 391.482881 -279.40234375 386.8984375 C-279.0628772 386.30529755 -278.72341064 385.71215759 -278.37365723 385.1010437 C-273.58332427 376.72762239 -268.84810737 368.32537221 -264.15234375 359.8984375 C-259.66263972 351.84129371 -255.079148 343.8483451 -250.40234375 335.8984375 C-244.84826866 326.45353975 -239.52056297 316.89677005 -234.25839233 307.28778076 C-229.15394674 297.97303644 -223.89024406 288.76512772 -218.50048828 279.61206055 C-213.43889838 270.9903947 -208.58210198 262.26204737 -203.74633789 253.51220703 C-199.45528443 245.75244494 -195.09942153 238.03398796 -190.68603516 230.34326172 C-187.10677003 224.10552339 -183.55994652 217.85021162 -180.02734375 211.5859375 C-175.49969414 203.5594319 -170.939814 195.55188608 -166.36010742 187.55499268 C-160.86884532 177.96630821 -155.41475184 168.35853984 -150.02734375 158.7109375 C-143.84948319 147.64813645 -137.58069656 136.64009568 -131.27734375 125.6484375 C-128.65056455 121.06612093 -126.02540845 116.482881 -123.40234375 111.8984375 C-123.0628772 111.30529755 -122.72341064 110.71215759 -122.37365723 110.1010437 C-117.5833228 101.72761982 -112.8483398 93.32524465 -108.15234375 84.8984375 C-103.00599403 75.66828559 -97.74557112 66.51180397 -92.390625 57.40112305 C-89.59979985 52.64927287 -86.83612477 47.88748464 -84.15234375 43.07421875 C-60.23282599 0.21455312 -60.23282599 0.21455312 -39.4074707 -5.90063477 C-25.91373029 -8.75713202 -11.78191542 -6.99235461 0 0 Z " fill="#FEFEFE" transform="translate(1051.27734375,390.3515625)"/>
<path d="M0 0 C1.01723145 0.00572021 2.03446289 0.01144043 3.08251953 0.01733398 C11.25559117 0.21087587 17.62769145 1.37459806 24.8125 5.5 C25.57820313 5.92667969 26.34390625 6.35335937 27.1328125 6.79296875 C48.87489461 21.32665446 62.59812533 55.22792172 75.26171875 77.328125 C78.58558981 83.12211148 81.96756674 88.87984281 85.375 94.625 C91.65490151 105.2166333 97.86340567 115.84895259 104.05957031 126.48974609 C112.12383523 140.33826788 120.20471108 154.1769217 128.3125 168 C136.39838585 181.78573547 144.45412818 195.58890156 152.50097656 209.39746094 C159.78508999 221.89590801 167.08569725 234.38449894 174.40493774 246.86239624 C179.78650187 256.03730715 185.15431195 265.22009295 190.50830078 274.41113281 C193.62824935 279.76442905 196.75717281 285.1123096 199.8984375 290.453125 C203.8563104 297.1824313 207.80124709 303.91920772 211.73779297 310.66101074 C212.80671045 312.49009318 213.87780102 314.31788905 214.94921875 316.14550781 C245.42926078 368.1952514 245.42926078 368.1952514 241.08984375 387.7578125 C236.75291818 401.48848375 229.19783861 412.89741591 216.5625 420.24609375 C210.07209946 423.20549513 203.60028871 425.00947033 196.50634766 425.67033386 C195.66688913 425.75004997 194.82743061 425.82976609 193.96253395 425.91189784 C179.80224882 427.07664415 165.53233764 426.79084462 151.33437634 426.77610838 C146.82440995 426.77361537 142.31446328 426.78268674 137.80450439 426.79014587 C128.99597117 426.80282288 120.18746852 426.80469547 111.37892771 426.80234561 C104.21328805 426.80055488 97.0476576 426.80232818 89.88201904 426.80657005 C88.34609386 426.80746284 88.34609386 426.80746284 86.77913988 426.80837366 C84.69832118 426.80958553 82.61750249 426.81079967 80.5366838 426.81201603 C61.07302667 426.82286401 41.60938692 426.82074176 22.14572883 426.81463119 C4.37754199 426.80946106 -13.39059003 426.82072491 -31.15876603 426.83972941 C-49.45214169 426.85914407 -67.74549147 426.86735767 -86.03887749 426.86360615 C-96.2897103 426.86170005 -106.54049645 426.86412407 -116.7913208 426.87832069 C-125.51520487 426.89028164 -134.23901353 426.89158661 -142.96289873 426.87953053 C-147.40494895 426.87367557 -151.84686154 426.87244772 -156.28890228 426.88453293 C-210.00669762 427.02032948 -210.00669762 427.02032948 -225.37890625 412.54296875 C-235.23448495 401.41020922 -239.79116337 389.14796836 -239.4453125 374.44140625 C-238.05683186 353.21448257 -222.57253437 332.38037207 -212.03320312 314.62695312 C-208.87487623 309.2761792 -205.78417682 303.88660578 -202.6875 298.5 C-196.1396554 287.13192077 -189.5406965 275.79435542 -182.92138672 264.46777344 C-180.0073916 259.48009043 -177.09767432 254.48991295 -174.1875 249.5 C-173.02085357 247.4999882 -171.85418691 245.49998819 -170.6875 243.5 C-170.11 242.51 -169.5325 241.52 -168.9375 240.5 C-163.6875 231.5 -163.6875 231.5 -161.93774414 228.50048828 C-160.77018272 226.49890789 -159.60270236 224.49728023 -158.43530273 222.49560547 C-155.53298584 217.51939608 -152.62930084 212.54399545 -149.72265625 207.5703125 C-143.71972941 197.29467443 -137.74562212 187.00361437 -131.8125 176.6875 C-126.67087652 167.75129826 -121.45770538 158.86094387 -116.1875 150 C-108.39902737 136.90261932 -100.77558961 123.71422451 -93.1875 110.5 C-84.24812173 94.9325835 -75.22498452 79.42152077 -66.04296875 63.99609375 C-63.56636786 59.83345407 -61.10970536 55.66038666 -58.67578125 51.47265625 C-28.60591412 -0.18605856 -28.60591412 -0.18605856 0 0 Z " fill="#FEFEFE" transform="translate(1376.1875,1004.5)"/>
</svg>
