<?xml version="1.0" encoding="UTF-8"?>
<svg version="1.1" xmlns="http://www.w3.org/2000/svg" width="2048" height="2048">
<path d="M0 0 C2.69988766 0.26503807 5.40065605 0.5194734 8.10162354 0.77325439 C80.61613371 7.68096176 153.01470985 21.68545487 222.25640869 44.48883057 C224.74030042 45.30609255 227.22633247 46.11663987 229.71246338 46.92706299 C265.80240195 58.72823754 301.10454079 72.32016946 335.57965088 88.25323486 C336.91457792 88.86756634 338.24954042 89.48182076 339.58453369 90.0960083 C366.8863684 102.6770512 393.54868497 116.19085506 419.57965088 131.25323486 C420.74443449 131.92445694 421.90931452 132.59551171 423.07427979 133.26641846 C437.73763686 141.71899861 452.24034661 150.33840363 466.31939697 159.7444458 C468.57325289 161.24896401 470.83512428 162.74068549 473.09918213 164.22979736 C484.4097371 171.68981981 495.52807027 179.41565684 506.57965088 187.25323486 C507.35341064 187.80124756 508.12717041 188.34926025 508.92437744 188.91387939 C525.3874759 200.6024685 541.22769166 213.03237677 556.83990479 225.82940674 C558.39913415 227.10549791 559.96366188 228.37510868 561.52886963 229.64385986 C571.9999891 238.14304588 582.21240522 246.92176167 592.14996338 256.03839111 C594.18480503 257.89330304 596.24286335 259.70752285 598.32965088 261.50323486 C607.97982296 269.90502739 617.19597428 278.78614098 626.18121338 287.88995361 C628.19058512 289.86987202 630.22748266 291.69934468 632.39215088 293.50323486 C637.04384531 297.46861372 641.08452679 301.99863351 645.2197876 306.48687744 C648.90414105 310.4799894 652.65132555 314.37283299 656.51715088 318.19073486 C660.05488526 321.69247486 663.41743962 325.25231447 666.64605713 329.03839111 C668.67869488 331.36668526 670.77380491 333.62500219 672.88336182 335.88336182 C677.9561803 341.3148087 682.78835466 346.85225268 687.44293213 352.65167236 C689.53847581 355.20310215 691.71928242 357.6365026 693.95465088 360.06573486 C697.93226773 364.43560805 701.58841682 368.98933022 705.20758057 373.65435791 C708.80431027 378.28716979 712.48862576 382.84074986 716.20465088 387.37823486 C721.50663327 393.87694161 726.64034613 400.47314697 731.57965088 407.25323486 C732.05869873 407.91017334 732.53774658 408.56711182 733.03131104 409.24395752 C736.90391782 414.56381692 740.74870321 419.90331417 744.57965088 425.25323486 C745.09463135 425.97204834 745.60961182 426.69086182 746.14019775 427.43145752 C763.43262123 451.61748225 779.51403237 476.62294848 794.57965088 502.25323486 C795.16891357 503.2537085 795.75817627 504.25418213 796.36529541 505.28497314 C804.73928166 519.53972703 812.70080604 533.94121285 820.23590088 548.65557861 C821.47235041 551.04580809 822.73559194 553.41820775 824.01715088 555.78448486 C864.11288836 629.94881936 891.66941699 712.23259813 932.32965088 939.12823486 C932.38881683 939.85680695 932.44798279 940.58537903 932.50894165 941.33602905 C933.97200272 959.64112878 934.73982252 977.91472033 934.78277588 996.27667236 C934.7897561 998.14124575 934.79679706 1000.0058189 934.80389404 1001.87039185 C934.82315211 1007.78967591 934.82806906 1013.70892288 934.82965088 1019.62823486 C934.83024002 1020.63561203 934.83082916 1021.6429892 934.83143616 1022.68089294 C934.84347841 1051.84186095 934.66328954 1080.85782955 931.80749512 1109.90527344 C931.57468597 1112.30439885 931.35632257 1114.70447221 931.1416626 1117.10528564 C926.55437865 1168.09504254 917.81625246 1218.5583397 905.57965088 1268.25323486 C905.38435791 1269.04643127 905.18906494 1269.83962769 904.987854 1270.65686035 C899.02972231 1294.75669191 892.07607315 1318.47400749 884.30560303 1342.04998779 C883.60688077 1344.17059281 882.91187898 1346.29238756 882.21734619 1348.41436768 C868.14429771 1391.27510004 850.5381427 1432.8217891 830.57965088 1473.25323486 C829.86861194 1474.70370597 829.15765735 1476.15421844 828.44683838 1477.60479736 C826.91727886 1480.70932076 825.36048047 1483.79907533 823.78814697 1486.88214111 C822.86111788 1488.70099092 821.93762841 1490.52164516 821.01568604 1492.34307861 C812.41083267 1509.318867 803.3983702 1525.93901285 793.57965088 1542.25323486 C792.98764893 1543.24081787 792.39564697 1544.22840088 791.78570557 1545.24591064 C784.28668966 1557.73819348 776.59951194 1570.08890261 768.57965088 1582.25323486 C768.17859131 1582.86505615 767.77753174 1583.47687744 767.36431885 1584.10723877 C760.00894757 1595.322151 752.33157928 1606.30971395 744.57965088 1617.25323486 C744.02873779 1618.03134521 743.47782471 1618.80945557 742.91021729 1619.61114502 C731.22443118 1636.06965219 718.79709925 1651.90543546 706.003479 1667.51348877 C704.72738784 1669.07271814 703.45777706 1670.63724586 702.18902588 1672.20245361 C693.68983986 1682.67357308 684.91112407 1692.88598921 675.79449463 1702.82354736 C673.93958271 1704.85838901 672.1253629 1706.91644733 670.32965088 1709.00323486 C662.13846847 1718.40863961 653.50779858 1727.42958128 644.62774658 1736.18365479 C641.98428087 1738.80220313 639.47259846 1741.46726232 637.07965088 1744.31573486 C633.81624329 1748.1466916 630.14745768 1751.46977789 626.41265869 1754.82672119 C622.42227199 1758.43056237 618.6070118 1762.17751669 614.82965088 1766.00323486 C610.91449487 1769.95949487 606.97126883 1773.78663584 602.72418213 1777.38995361 C600.41741556 1779.39419341 598.18662785 1781.46664743 595.95391846 1783.55255127 C590.52141167 1788.62729418 584.98224759 1793.46064283 579.18121338 1798.11651611 C576.62978359 1800.2120598 574.19638315 1802.39286641 571.76715088 1804.62823486 C567.39727769 1808.60585172 562.84355552 1812.2620008 558.17852783 1815.88116455 C553.54571595 1819.47789426 548.99213588 1823.16220975 544.45465088 1826.87823486 C537.95594413 1832.18021725 531.35973877 1837.31393011 524.57965088 1842.25323486 C523.9227124 1842.73228271 523.26577393 1843.21133057 522.58892822 1843.70489502 C517.26906882 1847.5775018 511.92957157 1851.42228719 506.57965088 1855.25323486 C505.8608374 1855.76821533 505.14202393 1856.2831958 504.40142822 1856.81378174 C480.21472839 1874.1066879 455.20730905 1890.18191666 429.57965088 1905.25323486 C428.09489258 1906.12915283 428.09489258 1906.12915283 426.58013916 1907.02276611 C410.83672923 1916.28789818 394.87704297 1925.00269856 378.57965088 1933.25323486 C377.82538818 1933.63528076 377.07112549 1934.01732666 376.29400635 1934.41094971 C373.06948147 1936.03962874 369.83821448 1937.65361548 366.59918213 1939.25323486 C363.66505878 1940.70450589 360.75073785 1942.19047394 357.84136963 1943.69073486 C332.17909577 1956.84931471 305.4714461 1967.87811387 278.57965088 1978.25323486 C277.43012939 1978.69699463 276.28060791 1979.14075439 275.09625244 1979.59796143 C238.01382914 1993.79415125 200.09443369 2005.63205492 161.57965088 2015.25323486 C160.82744263 2015.44145813 160.07523438 2015.6296814 159.30023193 2015.8236084 C148.76046848 2018.45264423 138.18974042 2020.92453504 127.57965088 2023.25323486 C126.89954956 2023.40278625 126.21944824 2023.55233765 125.51873779 2023.7064209 C85.56359027 2032.45229796 44.97039178 2038.13347581 4.26806641 2041.99609375 C1.70656695 2042.24109562 -0.85370066 2042.49654398 -3.41400146 2042.75372314 C-60.52541485 2048.36532001 -120.77484781 2048.25537829 -177.86877441 2042.50970459 C-180.57034771 2042.23815786 -183.27283464 2041.97728279 -185.9755249 2041.71710205 C-274.93390551 2033.05156515 -362.4193724 2013.59077319 -496.42034912 1962.25323486 C-497.24003174 1961.89519775 -498.05971436 1961.53716064 -498.90423584 1961.16827393 C-504.77399717 1958.59652772 -510.60301433 1955.94124473 -516.42034912 1953.25323486 C-517.01909851 1952.97695251 -517.6178479 1952.70067017 -518.23474121 1952.41601562 C-577.0494195 1925.26158769 -632.5789871 1892.72735847 -685.42034912 1855.25323486 C-686.58098877 1854.43121582 -686.58098877 1854.43121582 -687.76507568 1853.59259033 C-704.22817414 1841.90400122 -720.06838991 1829.47409295 -735.68060303 1816.67706299 C-737.23983239 1815.40097182 -738.80436012 1814.13136105 -740.36956787 1812.86260986 C-750.84068734 1804.36342384 -761.05310346 1795.58470805 -770.99066162 1786.46807861 C-773.02550327 1784.61316669 -775.08356159 1782.79894688 -777.17034912 1781.00323486 C-786.57575387 1772.81205245 -795.59669553 1764.18138256 -804.35076904 1755.30133057 C-806.96931738 1752.65786486 -809.63437657 1750.14618245 -812.48284912 1747.75323486 C-816.31380586 1744.48982727 -819.63689215 1740.82104167 -822.99383545 1737.08624268 C-826.59767663 1733.09585598 -830.34463094 1729.28059579 -834.17034912 1725.50323486 C-838.12660913 1721.58807886 -841.9537501 1717.64485282 -845.55706787 1713.39776611 C-847.56130767 1711.09099955 -849.63376169 1708.86021183 -851.71966553 1706.62750244 C-856.79440844 1701.19499565 -861.62775709 1695.65583157 -866.28363037 1689.85479736 C-868.37917406 1687.30336757 -870.55998067 1684.86996713 -872.79534912 1682.44073486 C-876.77296597 1678.07086168 -880.42911506 1673.5171395 -884.04827881 1668.85211182 C-887.64500852 1664.21929994 -891.32932401 1659.66571986 -895.04534912 1655.12823486 C-900.34733151 1648.62952812 -905.48104437 1642.03332275 -910.42034912 1635.25323486 C-910.89939697 1634.59629639 -911.37844482 1633.93935791 -911.87200928 1633.26251221 C-915.74461606 1627.94265281 -919.58940145 1622.60315556 -923.42034912 1617.25323486 C-923.93532959 1616.53442139 -924.45031006 1615.81560791 -924.980896 1615.07501221 C-932.69445669 1604.28645097 -940.13183898 1593.3327653 -947.42034912 1582.25323486 C-948.07438721 1581.26565186 -948.07438721 1581.26565186 -948.74163818 1580.25811768 C-966.98734275 1552.68775861 -983.48473985 1524.02742314 -998.62738037 1494.64776611 C-1000.36625209 1491.27434305 -1002.128504 1487.91672534 -1003.93206787 1484.57745361 C-1011.38074123 1470.76042602 -1017.97277073 1456.55899262 -1024.42034912 1442.25323486 C-1025.21529785 1440.49173096 -1025.21529785 1440.49173096 -1026.02630615 1438.69464111 C-1062.75255368 1356.80427088 -1088.15163944 1269.74935331 -1108.17034912 1135.25323486 C-1108.26544769 1134.42128601 -1108.36054626 1133.58933716 -1108.45852661 1132.73217773 C-1112.42056025 1097.60421224 -1113.93790933 1062.35561102 -1113.8114624 1027.02374268 C-1113.79437231 1022.21511946 -1113.80457576 1017.40699503 -1113.82178497 1012.59838867 C-1113.92825134 977.3853122 -1112.17082182 942.25048676 -1108.17034912 907.25323486 C-1108.06808014 906.33572449 -1107.96581116 905.41821411 -1107.86044312 904.47290039 C-1100.36937562 837.62333459 -1086.48076626 771.16651504 -1065.42034912 707.25323486 C-1064.85162693 705.5154541 -1064.28294372 703.77766058 -1063.71429443 702.03985596 C-1055.51576641 677.06474265 -1046.5859205 652.49427053 -1036.42034912 628.25323486 C-1035.89259991 626.98780596 -1035.36492915 625.72234434 -1034.83734131 624.45684814 C-1018.7289162 585.92757885 -1000.31265903 548.40997465 -979.42034912 512.25323486 C-978.74774624 511.08547313 -978.0752231 509.91766546 -977.402771 508.74981689 C-968.98057732 494.13893946 -960.39577971 479.68427324 -951.02386475 465.65557861 C-949.33928087 463.1317806 -947.66814596 460.59941952 -945.99847412 458.06573486 C-934.79447051 441.10591838 -923.25757987 424.40196505 -910.93109131 408.23614502 C-909.36218729 406.17689512 -907.80115066 404.11183575 -906.24066162 402.04620361 C-899.2967555 392.88058163 -892.15930993 383.89405636 -884.86029053 375.00909424 C-883.57669211 373.44387894 -882.30071841 371.87241786 -881.02581787 370.30010986 C-872.52959432 359.82908841 -863.7504809 349.61901832 -854.63519287 339.68292236 C-852.78028095 337.64808071 -850.96606114 335.59002239 -849.17034912 333.50323486 C-840.76855659 323.85306278 -831.88744301 314.63691146 -822.78363037 305.65167236 C-820.80371197 303.64230063 -818.9742393 301.60540308 -817.17034912 299.44073486 C-813.20497027 294.78904044 -808.67495047 290.74835895 -804.18670654 286.61309814 C-800.19359459 282.92874469 -796.30075099 279.18156019 -792.48284912 275.31573486 C-788.98110913 271.77800048 -785.42126952 268.41544612 -781.63519287 265.18682861 C-779.30689872 263.15419086 -777.04858179 261.05908083 -774.79022217 258.94952393 C-769.35877529 253.87670545 -763.8213313 249.04453108 -758.02191162 244.38995361 C-755.47048183 242.29440993 -753.03708139 240.11360332 -750.60784912 237.87823486 C-746.23797593 233.90061801 -741.68425376 230.24446892 -737.01922607 226.62530518 C-732.38641582 223.02857673 -727.83278538 219.34431789 -723.29534912 215.62823486 C-717.35888909 210.7837964 -711.34683355 206.07829546 -705.16986084 201.54180908 C-703.11362595 200.02732293 -701.06597692 198.50153198 -699.01800537 196.97589111 C-688.96814799 189.50626377 -678.8090366 182.24361424 -668.42034912 175.25323486 C-667.7052417 174.77144775 -666.99013428 174.28966064 -666.25335693 173.79327393 C-660.99239773 170.2545018 -655.71113489 166.74721634 -650.42034912 163.25323486 C-649.74455811 162.80512451 -649.06876709 162.35701416 -648.37249756 161.89532471 C-635.31451168 153.25297456 -621.90406981 145.21064435 -608.42034912 137.25323486 C-607.34510986 136.61804932 -606.26987061 135.98286377 -605.16204834 135.32843018 C-590.41582224 126.64530562 -575.4685145 118.49125927 -560.23187256 110.70391846 C-557.67900317 109.3866946 -555.14375681 108.04303886 -552.61566162 106.67901611 C-510.93141682 84.19843266 -466.18053749 66.54114045 -421.42034912 51.25323486 C-420.70145508 51.00766846 -419.98256104 50.76210205 -419.24188232 50.50909424 C-393.24827691 41.65593705 -367.04657091 33.96294947 -340.42034912 27.25323486 C-339.67587524 27.06523315 -338.93140137 26.87723145 -338.16436768 26.68353271 C-287.2309144 13.86130387 -235.47376462 5.43990059 -183.20300293 0.51751709 C-180.5840392 0.26878131 -177.96630362 0.00968219 -175.34857178 -0.25164795 C-117.90260807 -5.86895626 -57.4321768 -5.64278694 0 0 Z " fill="#F0B90B" transform="translate(1113.4203491210938,2.74676513671875)"/>
<path d="M0 0 C2.75019148 1.37932917 5.42640437 2.82590482 8.08959961 4.3671875 C9.1429248 4.97530273 10.19625 5.58341797 11.28149414 6.20996094 C12.40281738 6.86254883 13.52414062 7.51513672 14.67944336 8.1875 C15.86152045 8.87281074 17.04365 9.558031 18.22583008 10.24316406 C26.54969884 15.07516817 34.8178524 19.99609237 43.05834961 24.96875 C50.07833103 29.20090444 57.12991112 33.37983409 64.17944336 37.5625 C64.86822571 37.97125366 65.55700806 38.38000732 66.2666626 38.80114746 C76.63919336 44.956422 87.01532371 51.10562268 97.39257812 57.25292969 C106.82158589 62.8391537 116.24522534 68.43439087 125.66821289 74.03076172 C134.81489707 79.46290128 143.96415676 84.89064667 153.11694336 90.3125 C161.58947441 95.33138907 170.05938537 100.35464626 178.52612305 105.38330078 C181.23460302 106.99189984 183.94360814 108.59960875 186.65307617 110.20654297 C192.63082163 113.75255385 198.60620076 117.30214905 204.56726074 120.87615967 C207.07300293 122.37794973 209.58092825 123.8760703 212.08911133 125.3737793 C213.82581526 126.41289205 215.55931182 127.45735944 217.29272461 128.50195312 C218.33299805 129.12263672 219.37327148 129.74332031 220.44506836 130.3828125 C221.80486816 131.19903076 221.80486816 131.19903076 223.19213867 132.03173828 C226.26163955 133.67945864 226.26163955 133.67945864 229.61694336 134.3125 C232.09516272 133.29003127 232.09516272 133.29003127 234.63256836 131.62109375 C236.11901855 130.709646 236.11901855 130.709646 237.63549805 129.77978516 C238.701875 129.10995605 239.76825195 128.44012695 240.86694336 127.75 C242.56773409 126.7050039 244.26854413 125.66003687 245.97076416 124.61737061 C247.13763338 123.90207122 248.30359956 123.18529677 249.46868896 122.46710205 C255.04785268 119.03016284 260.69733044 115.72230235 266.36694336 112.4375 C268.35274952 111.28277404 270.33842387 110.12782136 272.32397461 108.97265625 C273.33927246 108.38242676 274.35457031 107.79219727 275.40063477 107.18408203 C281.29051374 103.75673937 287.17395031 100.31841854 293.05444336 96.875 C293.66585175 96.51701324 294.27726013 96.15902649 294.90719604 95.79019165 C304.48549516 90.1787698 314.01413254 84.48835838 323.52392578 78.76147461 C333.42727619 72.80621468 343.4103139 66.99181816 353.40063477 61.18408203 C359.29051374 57.75673937 365.17395031 54.31841854 371.05444336 50.875 C371.66585175 50.51701324 372.27726013 50.15902649 372.90719604 49.79019165 C382.48039651 44.18175683 392.00445496 38.49517419 401.50854492 32.77026367 C409.55263512 27.93210485 417.6459225 23.18301731 425.76342773 18.46923828 C430.82455348 15.52924547 435.87486993 12.57311717 440.90600586 9.58203125 C442.4235144 8.68025146 442.4235144 8.68025146 443.97167969 7.76025391 C445.90005069 6.61262247 447.82704145 5.46266765 449.75244141 4.31005859 C450.61135986 3.79910645 451.47027832 3.2881543 452.35522461 2.76171875 C453.10843994 2.31143311 453.86165527 1.86114746 454.63769531 1.3972168 C456.61694336 0.3125 456.61694336 0.3125 459.61694336 -0.6875 C462.15942383 0.48974609 462.15942383 0.48974609 465.23413086 2.3359375 C466.07482872 2.83460831 466.07482872 2.83460831 466.93251038 3.34335327 C468.79138712 4.4487584 470.64142731 5.56816461 472.49194336 6.6875 C473.79411955 7.46493943 475.09694576 8.24129105 476.40039062 9.01660156 C479.11686421 10.63351311 481.83044828 12.25512636 484.54223633 13.87988281 C490.24776871 17.2929275 495.98958448 20.64364854 501.73052979 23.99664307 C511.58242472 29.75388435 521.41243821 35.54804639 531.23193359 41.36035156 C538.84798718 45.86540661 546.48142826 50.34055346 554.11694336 54.8125 C563.16571785 60.11297206 572.21069797 65.4196875 581.24194336 70.75 C582.15395508 71.28753906 583.0659668 71.82507813 584.00561523 72.37890625 C584.83899414 72.87132812 585.67237305 73.36375 586.53100586 73.87109375 C587.25239746 74.29704834 587.97378906 74.72300293 588.71704102 75.16186523 C590.37798859 76.16778221 592.00126197 77.23537908 593.61694336 78.3125 C594.0223999 81.01941109 594.0223999 81.01941109 594.06518555 84.53543091 C594.07692118 85.18078006 594.08865681 85.82612921 594.10074806 86.49103439 C594.13625894 88.66351296 594.15008376 90.83558306 594.16381836 93.00830078 C594.18424562 94.56211315 594.20580794 96.11591095 594.22842407 97.66969299 C594.29678384 102.78228264 594.33276821 107.89489895 594.36694336 113.0078125 C594.3803973 114.76777134 594.39400864 116.52772898 594.40777588 118.28768539 C594.46315732 125.61019104 594.5108421 132.93266873 594.53689575 140.25534248 C594.57425285 150.74877083 594.65609454 161.23959574 594.80202484 171.73209584 C594.90111598 179.10970775 594.95019935 186.48663014 594.9621048 193.86489284 C594.97045473 198.2715933 595.00030922 202.67565501 595.08312988 207.08163834 C595.15992135 211.23114768 595.17451361 215.37634629 595.14222336 219.5263958 C595.1410138 221.0454442 595.16189427 222.56470282 595.20698929 224.0830822 C595.33737925 228.7325451 595.2361929 232.88381037 593.61694336 237.3125 C589.63920476 240.99361455 585.5659068 243.07981752 580.61694336 245.3125 C579.37876185 246.02456884 578.14915746 246.75242245 576.93920898 247.51147461 C575.97692383 248.07358643 575.01463867 248.63569824 574.02319336 249.21484375 C572.9062207 249.86839844 571.78924805 250.52195312 570.63842773 251.1953125 C569.46460663 251.88022036 568.2907783 252.56511585 567.11694336 253.25 C565.8544823 253.98812517 564.59211475 254.7264103 563.32983398 255.46484375 C560.72016533 256.99133499 558.11010515 258.51715344 555.49975586 260.04248047 C549.96751648 263.27589209 544.44022429 266.51773776 538.91278076 269.75933838 C535.90025965 271.52601927 532.88753556 273.29235387 529.87475586 275.05859375 C529.2769632 275.40905762 528.67917053 275.75952148 528.06326294 276.12060547 C524.41897775 278.25687461 520.77388887 280.39176543 517.12818909 282.52561951 C504.66797228 289.81875933 492.21932665 297.12988902 479.80444336 304.5 C469.50549653 310.61360482 459.17449087 316.66952448 448.82397461 322.6953125 C440.79454368 327.37087321 432.78044101 332.07254611 424.76611328 336.77392578 C423.53670302 337.49511811 422.30729221 338.21630952 421.07788086 338.9375 C420.46594376 339.29649384 419.85400665 339.65548767 419.223526 340.02536011 C414.82795119 342.60354869 410.42989723 345.17747517 406.03100586 347.75 C404.15486953 348.84764444 402.27881536 349.94542905 400.40283203 351.04333496 C399.17750972 351.76038561 397.95208767 352.47726585 396.7265625 353.19396973 C387.91047119 358.35128189 379.1314642 363.56689022 370.42724609 368.91137695 C369.681604 369.36472412 368.93596191 369.81807129 368.16772461 370.28515625 C367.52488525 370.67968994 366.8820459 371.07422363 366.21972656 371.48071289 C364.61694336 372.3125 364.61694336 372.3125 362.61694336 372.3125 C362.62187972 372.88500598 362.62681609 373.45751197 362.63190204 374.04736662 C362.92286016 407.98386541 363.14588857 441.9200805 363.28079264 475.85755488 C363.2970517 479.93303348 363.3138779 484.00850955 363.33105469 488.08398438 C363.33446472 488.89533311 363.33787476 489.70668184 363.34138813 490.5426169 C363.39794572 503.67758719 363.50043813 516.81181732 363.61992971 529.94634861 C363.74152975 543.42512896 363.81371322 556.90352188 363.84009379 570.38282824 C363.85792674 578.6998402 363.91422549 587.0147603 364.01985743 595.33112818 C364.08861513 601.03520813 364.10933763 606.73820799 364.09246127 612.44267219 C364.08413679 615.73432941 364.10393419 619.02156817 364.16661453 622.31274414 C364.51566737 641.58487618 364.51566737 641.58487618 361.35888076 646.11977768 C357.92299683 649.33713511 354.03978791 650.77496898 349.61694336 652.3125 C347.76078005 653.35488212 345.92248968 654.430806 344.11694336 655.55859375 C342.28447036 656.62387713 340.4511059 657.68762824 338.61694336 658.75 C336.51650386 659.97104616 334.41625175 661.19241471 332.31616211 662.4140625 C331.22480957 663.04860352 330.13345703 663.68314453 329.0090332 664.33691406 C323.14195165 667.75395911 317.28581499 671.18964282 311.42944336 674.625 C310.20288827 675.34433229 308.97632573 676.06365189 307.74975586 676.78295898 C305.27394524 678.2349205 302.79820679 679.68700497 300.32250977 681.13916016 C295.45748433 683.99269238 290.59167937 686.84489442 285.72583008 689.69702148 C283.33018353 691.10124465 280.93468305 692.50571647 278.53930664 693.91040039 C272.90836152 697.2122594 267.27647843 700.512488 261.64144897 703.80737305 C258.99800181 705.35316139 256.35506154 706.89981527 253.7121582 708.4465332 C252.45964358 709.1792238 251.2068844 709.91149651 249.95385742 710.64331055 C248.20941063 711.66216791 246.46589637 712.68262141 244.72241211 713.703125 C243.66328613 714.32123047 242.60416016 714.93933594 241.51293945 715.57617188 C238.96754066 717.10229531 236.50752835 718.70822336 234.04272461 720.359375 C230.61694336 722.3125 230.61694336 722.3125 228.69335938 722.08984375 C226.30290063 721.19493245 224.18811486 720.0909983 221.96850586 718.828125 C221.05762207 718.31217773 220.14673828 717.79623047 219.20825195 717.26464844 C218.22937012 716.70293945 217.25048828 716.14123047 216.24194336 715.5625 C215.21536621 714.97758789 214.18878906 714.39267578 213.13110352 713.79003906 C204.54403074 708.8812603 196.02279381 703.86423612 187.51928711 698.8125 C180.87986133 694.86931643 174.21780692 690.96502105 167.55444336 687.0625 C166.31924736 686.33887948 165.08405859 685.61524661 163.84887695 684.89160156 C161.35091987 683.42823207 158.85285612 681.96504485 156.35473633 680.50195312 C152.68253222 678.35109925 149.01094883 676.19918771 145.33959961 674.046875 C144.24506155 673.40996483 143.15052349 672.77305466 142.02281761 672.11684418 C139.58100445 670.68756631 137.17697435 669.2247593 134.77689362 667.7240448 C128.60040709 663.89269261 122.92833718 660.93196635 115.92858887 658.89282227 C107.41790772 656.14770113 99.21409838 652.38056725 94.61694336 644.3125 C88.98799838 627.75553358 91.63915611 607.74398463 92.34187952 590.44850856 C92.63765035 582.94826087 92.73946464 575.44883755 92.82472867 567.94369733 C92.97936219 554.54393431 93.24213432 541.14888135 93.5949707 527.75292969 C93.6264946 526.55386807 93.6264946 526.55386807 93.65865535 525.33058298 C93.82995122 518.84618391 94.00653104 512.36193067 94.18333149 505.87767982 C94.33766447 500.20920776 94.48988547 494.54068439 94.63891602 488.87207031 C94.67045903 487.67449335 94.67045903 487.67449335 94.70263928 486.45272291 C95.05070026 473.10210831 95.28338861 459.75182466 95.43510294 446.39757252 C95.52515892 438.91415516 95.67808223 431.44162731 95.98191833 423.96359253 C99.01615146 394.66250284 99.01615146 394.66250284 90.90145874 368.24407959 C84.70010443 361.87337738 76.82702858 359.04946151 68.47120667 356.61521912 C61.78380717 354.54960092 56.00743831 350.49560412 50.11694336 346.8125 C47.71135789 345.38211956 45.29373961 343.97414019 42.87475586 342.56640625 C42.20236877 342.1722049 41.52998169 341.77800354 40.83721924 341.37185669 C37.26825552 339.27981207 33.69850704 337.18911305 30.12818909 335.09938049 C17.66797228 327.80624067 5.21932665 320.49511098 -7.19555664 313.125 C-17.49450347 307.01139518 -27.82550913 300.95547552 -38.17602539 294.9296875 C-44.98205908 290.96651452 -51.77691966 286.98436651 -58.57055664 283 C-59.17736267 282.64414825 -59.7841687 282.28829651 -60.40936279 281.92166138 C-63.49882704 280.10987162 -66.58818916 278.29790782 -69.67749023 276.48583984 C-73.93948183 273.98601112 -78.2020263 271.48712596 -82.46478271 268.98860168 C-85.46077697 267.23255472 -88.45658167 265.47618651 -91.4519043 263.71899414 C-97.11831556 260.39528659 -102.78676916 257.0751973 -108.46170044 253.76605225 C-111.14438192 252.20147749 -113.82601525 250.63511121 -116.50756836 249.06860352 C-117.78715545 248.32177472 -119.06725653 247.57582577 -120.34790039 246.83081055 C-122.1226431 245.79827987 -123.89559793 244.76274054 -125.66821289 243.7265625 C-126.67762939 243.1382666 -127.6870459 242.5499707 -128.72705078 241.94384766 C-129.60353271 241.40550293 -130.48001465 240.8671582 -131.38305664 240.3125 C-132.08514 239.9141265 -132.78722336 239.515753 -133.51058197 239.10530758 C-135.38305664 237.3125 -135.38305664 237.3125 -135.9311142 234.49371433 C-135.9534034 233.33954486 -135.9756926 232.18537539 -135.99865723 230.99623108 C-136.01618624 230.35284977 -136.03371526 229.70946846 -136.05177546 229.04659075 C-136.10527378 226.88656307 -136.13002516 224.7271876 -136.15454102 222.56665039 C-136.1861513 221.01916568 -136.21922752 219.47171033 -136.25366211 217.92428589 C-136.35852478 212.83652881 -136.41979084 207.74864082 -136.47680664 202.66015625 C-136.49825045 200.90616718 -136.5197605 199.15217891 -136.54133606 197.39819145 C-136.62786928 190.09716856 -136.70280095 182.79618081 -136.74782562 175.49477482 C-136.81269249 165.04542519 -136.94509411 154.60204844 -137.17342901 144.15495116 C-137.32862587 136.80189914 -137.4064006 129.45043677 -137.42750788 122.0957908 C-137.44208253 117.70638337 -137.48961588 113.32334253 -137.61991882 108.93571663 C-138.37239326 82.32512761 -138.37239326 82.32512761 -133.43791771 75.70151329 C-128.78282614 71.57900103 -123.65854183 69.22330498 -117.82324505 67.21222496 C-114.22625237 65.88597323 -111.20935917 63.98326823 -107.96508789 61.94921875 C-105.70902102 60.6320525 -103.45250918 59.3156481 -101.19555664 58 C-91.99088468 52.62431346 -82.82280924 47.19403629 -73.69555664 41.6875 C-65.31225402 36.63191038 -56.87461213 31.68400799 -48.38305664 26.8125 C-37.41594594 20.52047971 -26.54877687 14.07995605 -15.71899414 7.5546875 C-14.80472656 7.00780273 -13.89045898 6.46091797 -12.94848633 5.89746094 C-11.29631556 4.87672506 -9.66867703 3.81458074 -8.07543945 2.70410156 C-7.38546875 2.22682617 -6.69549805 1.74955078 -5.98461914 1.2578125 C-5.11184326 0.61996826 -5.11184326 0.61996826 -4.22143555 -0.03076172 C-2.38305664 -0.6875 -2.38305664 -0.6875 0 0 Z " fill="#FEFEFE" transform="translate(795.383056640625,730.6875)"/>
<path d="M0 0 C1.768869 0.96300811 3.53751917 1.92641818 5.30607605 2.88999939 C6.7834866 3.69468359 6.7834866 3.69468359 8.29074383 4.51562405 C11.06707695 6.03675083 13.81795187 7.59346283 16.55078125 9.19140625 C17.48486816 9.73676025 18.41895508 10.28211426 19.38134766 10.84399414 C20.34862793 11.41110107 21.3159082 11.97820801 22.3125 12.5625 C23.86783447 13.47213501 23.86783447 13.47213501 25.45458984 14.40014648 C35.08068393 20.03523651 44.6846777 25.70758102 54.28222656 31.39111328 C58.85308733 34.09700373 63.42669778 36.79823875 68 39.5 C69.83985348 40.58722312 71.67969724 41.67446268 73.51953125 42.76171875 C77.12082204 44.88978325 80.72240101 47.01735877 84.32421875 49.14453125 C88.86459125 51.82608519 93.40387099 54.50948322 97.94287109 57.19335938 C100.7363461 58.84419111 103.53073706 60.49345831 106.32539368 62.14228821 C108.78206212 63.59219805 111.23786823 65.04356422 113.69351196 66.49520874 C114.88438315 67.19878739 116.07559856 67.90178378 117.2671814 68.60415649 C118.9394657 69.59000043 120.61038021 70.5781668 122.28125 71.56640625 C123.72081055 72.41634155 123.72081055 72.41634155 125.18945312 73.28344727 C126.11693359 73.84990967 127.04441406 74.41637207 128 75 C129.03308603 75.47328861 130.06617207 75.94657722 131.13056374 76.43420792 C134.32593127 79.29144118 134.44312888 79.69064893 134.73828697 83.72449875 C134.76357036 85.73925697 134.75529197 87.75459215 134.7215271 89.76922607 C134.72665365 90.87928646 134.7317802 91.98934685 134.7370621 93.13304543 C134.74697396 96.86629949 134.7138962 100.5979488 134.68115234 104.33105469 C134.67946054 107.00159867 134.68014415 109.67204325 134.68380737 112.34257507 C134.68695466 118.09889195 134.66811826 123.85480102 134.63438034 129.61101532 C134.58563304 137.93347803 134.56999327 146.2557434 134.56245239 154.57833341 C134.54931819 168.08081716 134.50938211 181.58308352 134.45263672 195.08544922 C134.3975688 208.20230013 134.35509525 221.319092 134.32958984 234.43603516 C134.3280135 235.24446006 134.32643716 236.05288497 134.32481305 236.8858076 C134.31698287 240.941408 134.30940061 244.99700882 134.30194163 249.05260992 C134.23973372 282.70189761 134.13404833 316.35092217 134 350 C134.77224915 350.30182693 135.54449829 350.60365387 136.34014893 350.91462708 C139.15017223 352.06127895 141.66967141 353.43073254 144.296875 354.94921875 C145.83891602 355.83867188 145.83891602 355.83867188 147.41210938 356.74609375 C148.51361328 357.38675781 149.61511719 358.02742188 150.75 358.6875 C151.91467915 359.36203855 153.07939329 360.03651669 154.24414062 360.7109375 C163.08449552 365.8404309 171.8507168 371.08952329 180.60058594 376.37182617 C188.01629045 380.83855141 195.49033016 385.1933793 203 389.5 C212.60727312 395.00954731 222.12477738 400.65080898 231.60546875 406.375 C239.01975255 410.84031521 246.49201404 415.19434497 254 419.5 C263.60727312 425.00954731 273.12477738 430.65080898 282.60546875 436.375 C290.01975552 440.840317 297.49208353 445.19422 305 449.5 C314.56649018 454.98805389 324.06116384 460.58224462 333.5 466.28710938 C334.42296875 466.84462891 335.3459375 467.40214844 336.296875 467.9765625 C337.2278299 468.58249741 338.15878479 469.18843231 339.11795044 469.81272888 C342.10331295 471.6326139 345.10195867 472.79635402 348.39157104 473.96925354 C354.89152885 476.57233572 360.58489061 479.42252559 365 485 C368.78771797 495.49108507 367.63265716 507.45079417 367.23066664 518.42484689 C367.09223241 522.84565449 367.08014794 527.26685851 367.05410767 531.6894989 C366.98597622 540.04676325 366.80583921 548.39762461 366.58441889 556.75208014 C366.33769135 566.27003357 366.21735852 575.78830891 366.10711932 585.30866873 C365.87773631 604.87606401 365.49131384 624.43751582 365 644 C364.04751877 643.45549194 363.09503754 642.91098389 362.11369324 642.34997559 C360.8468753 641.62589109 359.5800549 640.90181092 358.31323242 640.17773438 C357.68749077 639.81999939 357.06174911 639.4622644 356.41704559 639.09368896 C352.94405068 637.10875513 349.46861185 635.12830659 345.98828125 633.15625 C335.62226952 627.2730155 325.33928656 621.26156732 315.09649658 615.16635132 C306.66398376 610.14982916 298.19450077 605.20196678 289.6875 600.3125 C280.93325349 595.28014613 272.21233206 590.19744126 263.52685547 585.04736328 C255.97066972 580.56786662 248.39366545 576.12451257 240.8125 571.6875 C231.29292083 566.11581168 221.79415378 560.51106372 212.3125 554.875 C202.39037873 548.97962437 192.41640728 543.18079449 182.41064453 537.42871094 C174.74920848 533.02057064 167.12589054 528.55247574 159.52246094 524.04516602 C152.00730813 519.59086952 144.47528451 515.16583498 136.9375 510.75 C135.70353103 510.02693834 134.46956293 509.30387518 133.2355957 508.58081055 C127.65100483 505.30879202 122.06555111 502.0382493 116.47949219 498.76873779 C113.44438015 496.99213877 110.40962385 495.21493275 107.375 493.4375 C106.77528381 493.08629089 106.17556763 492.73508179 105.55767822 492.37322998 C96.79083421 487.23788829 88.04664092 482.06581351 79.3125 476.875 C70.47370451 471.62340102 61.6001612 466.43772612 52.6875 461.3125 C44.60240451 456.66279636 36.53230986 451.99041477 28.5 447.25 C27.30250122 446.54484253 27.30250122 446.54484253 26.08081055 445.82543945 C24.44699726 444.85857603 22.83736104 443.84980031 21.25320244 442.80356312 C18.53457723 441.29636759 16.50953811 440.52760186 13.58197212 439.69424725 C7.80612687 437.69324701 3.40155804 435.20643697 0 430 C-3.42238896 417.98540212 -2.31846242 404.73305799 -2.08918118 392.36979258 C-2.0112529 387.10137121 -2.03776651 381.83333469 -2.05142212 376.5644989 C-2.06084899 367.44293802 -2.00450663 358.32369924 -1.90314102 349.20272255 C-1.75668472 336.01583832 -1.70995903 322.83007389 -1.68735717 309.64246454 C-1.6479872 288.24578875 -1.52827048 266.85035001 -1.35791016 245.4543457 C-1.19262008 224.67348408 -1.06524272 203.89295876 -0.98876953 183.11157227 C-0.98404051 181.83005413 -0.97931149 180.54853599 -0.97443916 179.22818396 C-0.95094803 172.79901242 -0.9282014 166.36983849 -0.9058249 159.94066298 C-0.71930335 106.62625381 -0.40233834 53.31318731 0 0 Z " fill="#FEFEFE" transform="translate(429,945)"/>
<path d="M0 0 C0.34325035 54.62601034 0.60760225 109.25191182 0.76597994 163.87878826 C0.78474079 170.32633912 0.8041556 176.77388786 0.82397461 183.22143555 C0.82790927 184.5050391 0.83184392 185.78864266 0.83589781 187.1111433 C0.90118763 207.90174237 1.01946637 228.69172 1.15729194 249.48195028 C1.29751099 270.81093902 1.38086998 292.13960207 1.41132742 313.46903282 C1.43192131 326.63338466 1.49698445 339.79598016 1.618747 352.95979137 C1.69797157 361.98388909 1.7220173 371.00707749 1.70252066 380.03149783 C1.69290092 385.24077812 1.70774942 390.44698799 1.78808212 395.65572357 C1.86112121 400.42636559 1.86476759 405.19187695 1.81348342 409.96275593 C1.80714736 411.6870996 1.826172 413.41176404 1.87324774 415.13547664 C2.19546536 427.66332261 2.19546536 427.66332261 -1.44865219 431.5418293 C-5.02743689 434.34233154 -8.93266496 436.28953217 -13.07573252 438.1143508 C-16.12358623 439.51713353 -18.92292956 441.25796885 -21.7890625 443 C-23.48099873 443.99078784 -25.17294231 444.98156372 -26.86553955 445.97122192 C-28.70427729 447.0463544 -30.54238569 448.12255654 -32.38037109 449.19897461 C-36.25309145 451.46681948 -40.12652238 453.73344886 -44 456 C-48.87559216 458.85315609 -53.75064417 461.70723225 -58.625 464.5625 C-59.22408173 464.91334656 -59.82316345 465.26419312 -60.44039917 465.62567139 C-69.20788683 470.76137531 -77.95272419 475.93380917 -86.6875 481.125 C-96.60967236 487.02029086 -106.58359142 492.81920477 -116.58935547 498.57128906 C-124.25079152 502.97942936 -131.87410946 507.44752426 -139.47753906 511.95483398 C-146.99269187 516.40913048 -154.52471549 520.83416502 -162.0625 525.25 C-163.29646897 525.97306166 -164.53043707 526.69612482 -165.7644043 527.41918945 C-171.34899517 530.69120798 -176.93444889 533.9617507 -182.52050781 537.23126221 C-185.55561985 539.00786123 -188.59037615 540.78506725 -191.625 542.5625 C-192.22471619 542.91370911 -192.82443237 543.26491821 -193.44232178 543.62677002 C-202.20916579 548.76211171 -210.95335908 553.93418649 -219.6875 559.125 C-229.60967236 565.02029086 -239.58359142 570.81920477 -249.58935547 576.57128906 C-257.24937181 580.97861251 -264.87163055 585.44529745 -272.47314453 589.95263672 C-280.02933028 594.43213338 -287.60633455 598.87548743 -295.1875 603.3125 C-304.70708326 608.88419071 -314.20550718 614.48950201 -323.6875 620.125 C-332.37573091 625.28078758 -341.07695208 630.41362187 -349.81484985 635.48480225 C-351.52943859 636.48079486 -353.24167286 637.48083713 -354.95385742 638.48095703 C-356.49456909 639.37210205 -356.49456909 639.37210205 -358.06640625 640.28125 C-359.4268103 641.07112305 -359.4268103 641.07112305 -360.81469727 641.87695312 C-363 643 -363 643 -365 643 C-365.51500338 622.6251579 -365.90237745 602.25164358 -366.13986778 581.87163258 C-366.25309826 572.40740138 -366.40729184 562.94722351 -366.65966797 553.4855957 C-366.87966704 545.23382175 -367.02103539 536.98498235 -367.06994689 528.73035735 C-367.09852967 524.36168838 -367.16509741 520.00140922 -367.32606125 515.63544655 C-368.266049 489.13103865 -368.266049 489.13103865 -362.86003876 482.29328537 C-357.68725939 477.89975739 -351.99816772 475.28538332 -345.65152359 473.00750542 C-341.88363609 471.57581268 -338.69350961 469.60587502 -335.28125 467.46875 C-333.021013 466.14552639 -330.76059798 464.82260681 -328.5 463.5 C-319.98977833 458.51721995 -311.4863764 453.52332594 -303 448.5 C-293.88724072 443.10590034 -284.7535281 437.74798484 -275.61572266 432.39648438 C-267.73428787 427.78036184 -259.86000241 423.15255748 -252 418.5 C-242.88724072 413.10590034 -233.7535281 407.74798484 -224.61572266 402.39648438 C-216.73428787 397.78036184 -208.86000241 393.15255748 -201 388.5 C-191.28096708 382.74702984 -181.53912623 377.03334113 -171.79101562 371.32983398 C-165.99538228 367.93752264 -160.20673624 364.53477887 -154.4375 361.09765625 C-152.92639648 360.19853516 -152.92639648 360.19853516 -151.38476562 359.28125 C-149.51703676 358.16845284 -147.65103296 357.05275305 -145.78710938 355.93359375 C-144.54670898 355.19496094 -144.54670898 355.19496094 -143.28125 354.44140625 C-142.57033203 354.01545166 -141.85941406 353.58949707 -141.12695312 353.15063477 C-138.81187993 351.89823119 -136.44862615 350.96006387 -134 350 C-134.00493636 349.42960999 -134.00987273 348.85921997 -134.01495868 348.27154541 C-134.30591824 314.46030422 -134.52894593 280.6493478 -134.66384928 246.83712739 C-134.68010833 242.77667006 -134.69693454 238.71621526 -134.71411133 234.65576172 C-134.71922638 233.44322454 -134.71922638 233.44322454 -134.72444477 232.20619166 C-134.78100202 219.11971886 -134.88349422 206.03398897 -135.00298635 192.9479568 C-135.12458738 179.51889717 -135.19677006 166.0902264 -135.22315043 152.66063881 C-135.24098319 144.37433291 -135.29728079 136.09012667 -135.40291407 127.80446726 C-135.47167301 122.12141124 -135.492394 116.43943931 -135.47551791 110.7559976 C-135.46719358 107.47648595 -135.48698903 104.20140903 -135.54967117 100.92238045 C-135.89880815 81.71726309 -135.89880815 81.71726309 -132.73885322 77.19525337 C-129.30111841 73.98447141 -125.41959763 72.53920044 -121 71 C-119.2069597 69.98444038 -117.43192637 68.93518335 -115.69140625 67.83203125 C-113.98248572 66.82430752 -112.27283497 65.81782123 -110.5625 64.8125 C-108.64711616 63.68362643 -106.73175214 62.55471922 -104.81640625 61.42578125 C-103.37031982 60.5742749 -103.37031982 60.5742749 -101.89501953 59.70556641 C-97.26049958 56.97519397 -92.63040089 54.23734997 -88 51.5 C-86.16018219 50.41271652 -84.32033842 49.32547697 -82.48046875 48.23828125 C-81.57216309 47.70154785 -80.66385742 47.16481445 -79.72802734 46.61181641 C-77.04412156 45.0260686 -74.3599842 43.44071349 -71.67578125 41.85546875 C-60.47032192 35.23703956 -49.27165303 28.60723058 -38.0769043 21.97070312 C-29.68544132 16.99673355 -21.28914477 12.03100302 -12.88867188 7.07226562 C-12.05142578 6.57791016 -11.21417969 6.08355469 -10.3515625 5.57421875 C-9.5874707 5.12353027 -8.82337891 4.6728418 -8.03613281 4.20849609 C-6.3367881 3.19989222 -4.64755421 2.17427796 -2.9609375 1.14453125 C-1 0 -1 0 0 0 Z " fill="#FEFEFE" transform="translate(1619,945)"/>
<path d="M0 0 C2.05718848 1.23136019 4.09136215 2.50193124 6.1015625 3.80859375 C8.00874661 4.92473359 9.91758729 6.03804791 11.828125 7.1484375 C13.79658292 8.34385729 15.76264634 9.54322702 17.7265625 10.74609375 C26.45856843 16.04203958 35.23995539 21.23250809 44.1015625 26.30859375 C53.70913192 31.81761341 63.22635175 37.4594099 72.70703125 43.18359375 C80.12131505 47.64890896 87.59357654 52.00293872 95.1015625 56.30859375 C104.70883562 61.81814106 114.22633988 67.45940273 123.70703125 73.18359375 C131.12131654 77.64890986 138.59361128 82.00287624 146.1015625 86.30859375 C155.75632231 91.84632835 165.32504498 97.51120838 174.85644531 103.25830078 C184.80346604 109.24929742 194.83331537 115.09273808 204.87207031 120.92822266 C210.83042064 124.39747078 216.77865491 127.88398105 222.7265625 131.37109375 C223.65341858 131.91440338 223.65341858 131.91440338 224.59899902 132.46868896 C233.31554886 137.578971 242.02024223 142.70899292 250.71533203 147.85571289 C258.33177984 152.36103068 265.9655282 156.83659646 273.6015625 161.30859375 C282.98338139 166.80299921 292.35498945 172.31406187 301.71044922 177.85327148 C306.86739681 180.90425285 312.03161382 183.94252333 317.203125 186.96875 C317.81873795 187.32899765 318.43435089 187.6892453 319.06861877 188.06040955 C320.3255758 188.79590882 321.58253893 189.53139765 322.83950806 190.26687622 C334.97504475 197.36803453 347.06692838 204.53737709 359.1015625 211.80859375 C355.42210471 216.11305533 350.79781283 218.42609738 345.9140625 221.12109375 C337.89775414 225.62153864 329.97007552 230.24200452 322.1015625 234.99609375 C313.01377505 240.47802012 303.88857239 245.88962136 294.7265625 251.24609375 C286.41491832 256.10666406 278.10868346 260.97537379 269.82617188 265.88549805 C267.61008588 267.19915894 265.39265656 268.51055659 263.17382812 269.81958008 C257.91633083 272.92617716 252.67895012 276.05628639 247.48410034 279.26628113 C245.00279408 280.79731559 242.51342662 282.31495232 240.02325439 283.83151245 C238.83516687 284.56027905 237.65110048 285.29564635 236.47137451 286.03787231 C234.84004669 287.06373991 233.1937424 288.06567523 231.546875 289.06640625 C230.61375488 289.64535645 229.68063477 290.22430664 228.71923828 290.82080078 C226.1015625 291.80859375 226.1015625 291.80859375 223.57641602 291.16430664 C221.03678883 289.77311104 218.53039037 288.36861152 216.05859375 286.859375 C215.08003418 286.26592285 214.10147461 285.6724707 213.09326172 285.06103516 C212.04412598 284.42085449 210.99499023 283.78067383 209.9140625 283.12109375 C207.66386768 281.75853277 205.41297954 280.39725967 203.16015625 279.0390625 C202.58150818 278.69012939 202.00286011 278.34119629 201.40667725 277.98168945 C195.14430131 274.21599859 188.81463385 270.57036668 182.4765625 266.93359375 C175.32167312 262.82519138 168.1837414 258.70338443 161.12792969 254.42675781 C154.53548898 250.4422358 147.87655351 246.57091725 141.2265625 242.68359375 C131.87971316 237.2188133 122.56321045 231.7087789 113.2890625 226.12109375 C102.35762782 219.53772222 91.34974468 213.09340431 80.31787109 206.68017578 C74.42799212 203.25283312 68.54455555 199.81451229 62.6640625 196.37109375 C62.05265411 196.01310699 61.44124573 195.65512024 60.81130981 195.2862854 C52.27204458 190.28357887 43.76748744 185.22645372 35.2890625 180.12109375 C26.83627969 175.03409114 18.36225821 169.98570151 9.8515625 164.99609375 C8.84504639 164.4028833 7.83853027 163.80967285 6.80151367 163.19848633 C5.86412354 162.65087646 4.9267334 162.1032666 3.9609375 161.5390625 C3.14077148 161.05848389 2.32060547 160.57790527 1.47558594 160.08276367 C-2.09367988 158.16259447 -2.09367988 158.16259447 -5.8984375 156.80859375 C-8.24186633 157.47422935 -8.24186633 157.47422935 -10.453125 158.921875 C-11.30704834 159.42323975 -12.16097168 159.92460449 -13.04077148 160.44116211 C-13.94255127 160.99553955 -14.84433105 161.54991699 -15.7734375 162.12109375 C-16.71453369 162.67998291 -17.65562988 163.23887207 -18.62524414 163.81469727 C-21.393234 165.46293408 -24.14660468 167.13356507 -26.8984375 168.80859375 C-28.21118253 169.59421691 -29.52484881 170.37830487 -30.83984375 171.16015625 C-33.20586093 172.56945541 -35.56581432 173.98818354 -37.921875 175.4140625 C-42.74837892 178.32909201 -47.60516486 181.19267689 -52.4609375 184.05859375 C-53.39542725 184.61023193 -54.32991699 185.16187012 -55.29272461 185.73022461 C-57.20695113 186.85999904 -59.12125843 187.98963662 -61.03564453 189.11914062 C-65.6578086 191.84687177 -70.27804838 194.57785757 -74.8984375 197.30859375 C-76.73176111 198.39194354 -78.56509445 199.47527686 -80.3984375 200.55859375 C-81.3059375 201.09484375 -82.2134375 201.63109375 -83.1484375 202.18359375 C-91.39843751 207.05859376 -91.39843751 207.05859376 -94.1472168 208.68286133 C-95.9846321 209.76861414 -97.82203439 210.85438896 -99.65942383 211.94018555 C-104.18019792 214.61167936 -108.70118084 217.2828183 -113.22265625 219.953125 C-123.28599039 225.89696563 -133.34454172 231.84880104 -143.3984375 237.80859375 C-154.33641067 244.29245376 -165.28047423 250.76591763 -176.22900391 257.23193359 C-179.86628566 259.38023848 -183.50310547 261.52932468 -187.13989258 263.6784668 C-188.96911814 264.75942432 -190.79838205 265.84031696 -192.62768555 266.92114258 C-201.14529826 271.95367086 -201.14529826 271.95367086 -209.65893555 276.99291992 C-211.544811 278.10599309 -213.43422522 279.21309567 -215.32739258 280.3137207 C-219.17043265 282.55360631 -222.9523152 284.78272377 -226.55859375 287.390625 C-229.39399676 289.36260206 -231.61393332 290.77573624 -234.8984375 291.80859375 C-237.37524414 290.97900391 -237.37524414 290.97900391 -239.93359375 289.41015625 C-241.37279175 288.55442017 -241.37279175 288.55442017 -242.84106445 287.68139648 C-243.84999756 287.06337158 -244.85893066 286.44534668 -245.8984375 285.80859375 C-247.97377854 284.6201253 -250.05196826 283.43661907 -252.1328125 282.2578125 C-254.30570156 281.00566433 -256.47754928 279.75170764 -258.6484375 278.49609375 C-259.22135529 278.16511688 -259.79427307 277.83414001 -260.384552 277.49313354 C-267.28966668 273.50311445 -274.17848873 269.49034173 -281.00268555 265.36303711 C-287.29868712 261.55544275 -293.62991408 257.80757925 -299.9609375 254.05859375 C-300.54538635 253.71244019 -301.12983521 253.36628662 -301.73199463 253.00964355 C-309.55588935 248.3760356 -317.38256998 243.74714085 -325.2109375 239.12109375 C-326.09056152 238.60111816 -326.97018555 238.08114258 -327.87646484 237.54541016 C-332.50303052 234.81133704 -337.13247903 232.0822839 -341.765625 229.359375 C-360.43479376 218.37678042 -360.43479376 218.37678042 -368.8984375 212.80859375 C-365.38085723 209.87073208 -361.80196967 207.45523879 -357.83984375 205.15625 C-357.26338608 204.82012192 -356.68692841 204.48399384 -356.09300232 204.13768005 C-354.21773627 203.04518172 -352.33933445 201.95819843 -350.4609375 200.87109375 C-349.14361004 200.10463082 -347.82655568 199.33769832 -346.50976562 198.5703125 C-344.51827083 197.40980509 -342.52661904 196.24957856 -340.53408813 195.09085083 C-334.97302443 191.85672565 -329.43215364 188.5892894 -323.8984375 185.30859375 C-317.9320141 181.77518359 -311.9584968 178.25433084 -305.97265625 174.75390625 C-305.37186752 174.40252594 -304.7710788 174.05114563 -304.15208435 173.68911743 C-303.54477982 173.33393036 -302.93747528 172.97874329 -302.31176758 172.61279297 C-301.06981363 171.88641133 -299.82787032 171.1600115 -298.5859375 170.43359375 C-297.96995697 170.07332092 -297.35397644 169.7130481 -296.71932983 169.34185791 C-288.18169025 164.34598019 -279.68148839 159.2927081 -271.2109375 154.18359375 C-261.5151727 148.33646426 -251.73673326 142.64545011 -241.91845703 137.00683594 C-235.88299741 133.5384329 -229.87779984 130.03495182 -223.92480469 126.42675781 C-217.33236398 122.4422358 -210.67342851 118.57091725 -204.0234375 114.68359375 C-194.67658816 109.2188133 -185.36008545 103.7087789 -176.0859375 98.12109375 C-165.15450282 91.53772222 -154.14661968 85.09340431 -143.11474609 78.68017578 C-137.2248667 75.25283288 -131.34149586 71.81440141 -125.4609375 68.37109375 C-124.54282791 67.83361511 -124.54282791 67.83361511 -123.60617065 67.28527832 C-114.08320604 61.70732451 -104.6137601 56.04477528 -95.1628418 50.34545898 C-86.47723076 45.12268863 -77.70694403 40.05404445 -68.91845703 35.00683594 C-62.30337152 31.20533877 -55.73787361 27.34153656 -49.2109375 23.390625 C-41.62759876 18.82565464 -33.96628158 14.38935596 -26.32495117 9.92236328 C-25.72080887 9.56799194 -25.11666656 9.21362061 -24.49421692 8.84851074 C-23.29944093 8.15156061 -22.10103564 7.4607926 -20.89897156 6.77648926 C-18.19989829 5.22894286 -15.67930148 3.64031225 -13.20947266 1.74365234 C-8.16964235 -2.02340214 -5.81218281 -2.81396477 0 0 Z " fill="#FEFEFE" transform="translate(1028.8984375,326.19140625)"/>
<path d="M0 0 C2.04236366 1.09080786 4.03653851 2.27283657 6 3.5 C7.33471997 4.32229205 8.67078358 5.14240512 10.0078125 5.9609375 C10.77899414 6.43370117 11.55017578 6.90646484 12.34472656 7.39355469 C17.19574887 10.32843211 22.1006362 13.172154 26.99765015 16.02935791 C36.93466489 21.82870936 46.83587493 27.68132769 56.6875 33.625 C66.13580252 39.32285425 75.66466788 44.86594525 85.23510742 50.35571289 C95.99457354 56.54169511 106.63379904 62.92264821 117.25390625 69.34423828 C120.86663999 71.522542 124.49193256 73.679636 128.11914062 75.83374023 C130 77 130 77 131 78 C131.14059978 80.00947777 131.21090877 82.02388453 131.25483704 84.03779602 C131.30025383 86.00799965 131.30025383 86.00799965 131.34658813 88.01800537 C131.37495093 89.48766598 131.40304861 90.95733172 131.4309082 92.42700195 C131.46334615 93.96431307 131.49594784 95.50162075 131.52870178 97.03892517 C131.81775308 111.11197855 131.98468884 125.18701594 132.11837482 139.26231098 C132.21035787 148.72503021 132.33985632 158.18417538 132.5637207 167.64477539 C132.75898584 175.8980623 132.8831224 184.14884331 132.92244023 192.40440148 C132.94557905 196.77285518 133.00292459 201.13451481 133.1451664 205.50084877 C133.97395247 232.00919866 133.97395247 232.00919866 129.05836296 238.60551834 C124.40089521 242.72693714 119.27130596 245.08531314 113.43621063 247.10072136 C109.86434294 248.41920519 106.87241053 250.30492044 103.65234375 252.328125 C101.41458594 253.63631247 99.17630154 254.94359956 96.9375 256.25 C94.43564255 257.71259349 91.93447784 259.17636786 89.43359375 260.640625 C88.49965286 261.18740906 88.49965286 261.18740906 87.54684448 261.74523926 C81.18392966 265.47332404 74.84104088 269.23483208 68.5 273 C59.07982439 278.59245071 49.64126265 284.15209059 40.1875 289.6875 C31.3079846 294.88815852 22.42859383 300.08897755 13.5625 305.3125 C12.67522217 305.83352295 11.78794434 306.3545459 10.8737793 306.89135742 C7.36050002 308.96412 3.88795396 311.04182177 0.52734375 313.35546875 C-2 315 -2 315 -4 315 C-3.97934353 314.20138078 -3.95868706 313.40276155 -3.93740463 312.57994175 C-3.44282303 293.08048081 -3.10574533 273.58398684 -2.94041061 254.07888126 C-2.85671171 244.64526164 -2.72123638 235.21787695 -2.46044922 225.78735352 C-2.23306229 217.55975636 -2.10629504 209.33754594 -2.09648919 201.10671133 C-2.08788457 196.75172937 -2.03160005 192.4100199 -1.85436249 188.05836678 C-0.57019684 170.92454737 -0.57019684 170.92454737 -6.26735497 155.38569403 C-12.79166672 148.81383428 -21.34313191 144.93988179 -29.76136017 141.3837719 C-33.78243281 139.66569036 -37.42917852 137.60243284 -41.1875 135.375 C-42.41459517 134.69157975 -43.64354823 134.01147605 -44.875 133.3359375 C-50.21785311 130.34597411 -55.44513694 127.16164178 -60.6875 124 C-69.88013548 118.45640306 -79.10757007 112.97978324 -88.375 107.5625 C-99.360389 101.14032649 -110.32062671 94.67750733 -121.25927734 88.17602539 C-126.4824681 85.0737252 -131.71194145 81.99054023 -137 79 C-137 78.34 -137 77.68 -137 77 C-136.29093506 76.59273682 -135.58187012 76.18547363 -134.85131836 75.76586914 C-118.12108094 66.17574119 -118.12108094 66.17574119 -101.53588867 56.33837891 C-96.29483265 53.16909695 -91.02498606 50.04994747 -85.75 46.9375 C-76.75129146 41.62665786 -67.75949274 36.30427152 -58.77157593 30.97518921 C-52.88305647 27.48393387 -46.99362164 23.9942945 -41.09765625 20.515625 C-40.17202881 19.96922363 -39.24640137 19.42282227 -38.29272461 18.85986328 C-36.49381618 17.79914593 -34.69387218 16.74018259 -32.89282227 15.68310547 C-28.34733814 13.0087958 -23.83838321 10.28919456 -19.3671875 7.4921875 C-18.45509521 6.92725586 -17.54300293 6.36232422 -16.60327148 5.78027344 C-14.87110866 4.70471121 -13.14615583 3.61741793 -11.42993164 2.51660156 C-10.65770264 2.03932617 -9.88547363 1.56205078 -9.08984375 1.0703125 C-8.41816162 0.64508301 -7.74647949 0.21985352 -7.05444336 -0.21826172 C-4.33396574 -1.25343336 -2.75624833 -0.82266925 0 0 Z " fill="#FEFEFE" transform="translate(1488,596)"/>
<path d="M0 0 C2.05751135 1.04837344 4.07429371 2.17827669 6.05859375 3.359375 C6.9237561 3.8702063 6.9237561 3.8702063 7.80639648 4.39135742 C9.6875114 5.50418276 11.56244212 6.62700438 13.4375 7.75 C14.74902704 8.52834923 16.0609617 9.30601201 17.37329102 10.08300781 C20.01412466 11.64795529 22.65263229 13.21670825 25.2890625 14.7890625 C29.44415274 17.26656568 33.61043163 19.72491178 37.77783203 22.18164062 C43.05804979 25.29529208 48.33154412 28.42032211 53.60644531 31.54296875 C65.50768846 38.58701426 77.42625655 45.60085682 89.36019897 52.58932495 C98.59951953 58.00005894 107.826769 63.43064333 117.03710938 68.890625 C121.66928331 71.63426926 126.31744318 74.34318542 131 77 C131 77.66 131 78.32 131 79 C130.10023438 79.49886719 129.20046875 79.99773437 128.2734375 80.51171875 C119.45117787 85.42662662 110.72661744 90.4914398 102.04125977 95.64404297 C94.92700164 99.86431457 87.79604352 104.05531021 80.65682983 108.2331543 C69.48375205 114.77190527 58.33422114 121.34853996 47.20263672 127.95776367 C37.42891214 133.75638079 27.62716589 139.50650139 17.81640625 145.2421875 C16.67945313 145.90734375 15.5425 146.5725 14.37109375 147.2578125 C13.38036865 147.8367627 12.38964355 148.41571289 11.36889648 149.01220703 C10.25716064 149.66817871 9.1454248 150.32415039 8 151 C7.18379275 151.32101433 6.36758551 151.64202866 5.52664471 151.97277069 C2.47906499 153.35010451 0.36919673 154.62352987 -2 157 C-3.51439057 162.02470417 -3.32506919 166.99377545 -3.22705078 172.18505859 C-3.23409681 173.74259931 -3.24553721 175.30012541 -3.2610321 176.85760498 C-3.29059187 181.07700332 -3.25878539 185.29396021 -3.21586847 189.51316023 C-3.18145095 193.9254889 -3.20358621 198.33752707 -3.21969604 202.74990845 C-3.24160776 211.10116564 -3.21273665 219.45144266 -3.165573 227.80256426 C-3.11434563 237.31165627 -3.11980118 246.82045223 -3.12999368 256.32964587 C-3.14968746 275.88675773 -3.09827762 295.44314851 -3 315 C-4.76435781 314.03918875 -6.52852767 313.07803237 -8.2926178 312.11672974 C-9.27505998 311.58152269 -10.25750216 311.04631565 -11.26971531 310.49489021 C-14.21850969 308.8803612 -17.145043 307.23195832 -20.05859375 305.5546875 C-21.61078613 304.66112549 -21.61078613 304.66112549 -23.19433594 303.74951172 C-24.26458008 303.13092285 -25.33482422 302.51233398 -26.4375 301.875 C-27.57348633 301.21902832 -28.70947266 300.56305664 -29.87988281 299.88720703 C-38.3345332 294.99653202 -46.72360667 290.00345449 -55.0859375 284.95703125 C-60.33044102 281.79406548 -65.60047018 278.67507108 -70.875 275.5625 C-71.79418213 275.02004639 -72.71336426 274.47759277 -73.66040039 273.91870117 C-75.52007084 272.8215884 -77.37985281 271.72466466 -79.23974609 270.62792969 C-86.47723453 266.35943748 -93.71018917 262.08327031 -100.94287109 257.80664062 C-103.7363461 256.15580889 -106.53073706 254.50654169 -109.32539368 252.85771179 C-111.78206212 251.40780195 -114.23786823 249.95643578 -116.69351196 248.50479126 C-117.88438315 247.80121261 -119.07559856 247.09821622 -120.2671814 246.39584351 C-121.9394657 245.40999957 -123.61038021 244.4218332 -125.28125 243.43359375 C-126.72081055 242.58365845 -126.72081055 242.58365845 -128.18945312 241.71655273 C-129.11693359 241.15009033 -130.04441406 240.58362793 -131 240 C-132.54775541 239.15609868 -132.54775541 239.15609868 -134.1267786 238.29514885 C-137 236 -137 236 -137.76342678 233.057024 C-137.76958539 231.90335775 -137.775744 230.74969151 -137.78208923 229.56106567 C-137.79356587 228.9166801 -137.80504252 228.27229452 -137.81686693 227.60838211 C-137.84780876 225.45057541 -137.83589615 223.29517114 -137.82397461 221.13720703 C-137.83701753 219.58969914 -137.85256754 218.04221065 -137.87043762 216.49475098 C-137.91063121 212.29202163 -137.91234161 208.09010115 -137.90474772 203.88721704 C-137.90153958 200.37823207 -137.91618614 196.869411 -137.93056399 193.36046112 C-137.96385843 185.08116592 -137.96515774 176.80227899 -137.94702148 168.52294922 C-137.92890324 159.98367075 -137.96582565 151.44587536 -138.02973169 142.90684998 C-138.08259014 135.57415604 -138.10058239 128.24193399 -138.09081846 120.90905654 C-138.08537989 116.52998602 -138.09328225 112.15197304 -138.13496208 107.7730751 C-138.17270488 103.65356883 -138.16686983 99.53637158 -138.12772942 95.41690063 C-138.12063336 93.90683079 -138.12883426 92.39659838 -138.15359879 90.88671494 C-138.32714117 79.48177219 -138.32714117 79.48177219 -135.03626251 75.80745888 C-132.74336406 74.25349348 -130.5361549 73.10027946 -128 72 C-126.38859131 71.01604248 -126.38859131 71.01604248 -124.74462891 70.01220703 C-123.74866699 69.43325684 -122.75270508 68.85430664 -121.7265625 68.2578125 C-120.8903965 67.76989731 -120.8903965 67.76989731 -120.03733826 67.27212524 C-118.84940694 66.57927555 -117.66077066 65.88763329 -116.47146606 65.19714355 C-113.26016404 63.33251315 -110.05436877 61.45844577 -106.84765625 59.5859375 C-106.19246506 59.20369019 -105.53727386 58.82144287 -104.86222839 58.4276123 C-98.24464191 54.56475546 -91.65162476 50.6611917 -85.0625 46.75 C-83.38631592 45.75540771 -83.38631592 45.75540771 -81.67626953 44.74072266 C-79.48612109 43.44115534 -77.29601574 42.1415154 -75.10595703 40.84179688 C-70.4073047 38.05554996 -65.70378432 35.27757107 -61 32.5 C-58.30786236 30.90931563 -55.61583518 29.31844444 -52.92382812 27.72753906 C-50.85502186 26.50518827 -48.78598908 25.2832208 -46.71679688 24.06152344 C-43.81179832 22.34631746 -40.90782576 20.62938276 -38.00421143 18.91183472 C-36.2684273 17.88589154 -34.53146135 16.86197053 -32.79443359 15.83813477 C-27.64005921 12.79114976 -22.51266497 9.71872587 -17.4609375 6.50390625 C-16.63432617 5.98135254 -15.80771484 5.45879883 -14.95605469 4.92041016 C-13.45100387 3.9629658 -11.95357834 2.9933778 -10.46582031 2.00927734 C-6.43594994 -0.54970023 -4.55468163 -1.40179404 0 0 Z " fill="#FEFEFE" transform="translate(566,596)"/>
<path d="M0 0 C4.01100121 1.29329562 7.43883687 2.67385608 11.03515625 4.87890625 C11.99405762 5.46148193 12.95295898 6.04405762 13.94091797 6.64428711 C15.48610107 7.59380249 15.48610107 7.59380249 17.0625 8.5625 C19.31558253 9.93107227 21.56938475 11.2983851 23.82421875 12.6640625 C24.40898987 13.01893234 24.99376099 13.37380219 25.59625244 13.73942566 C32.14794041 17.70923441 38.75989959 21.57463765 45.375 25.4375 C47.82195734 26.867904 50.2685113 28.29899632 52.71484375 29.73046875 C53.3196759 30.08436172 53.92450806 30.4382547 54.54766846 30.8028717 C64.34755686 36.54108273 74.10611361 42.34933494 83.87207031 48.14501953 C89.56562334 51.52151156 95.2638463 54.89011543 100.96606445 58.25195312 C105.69144881 61.03884154 110.40763979 63.84003764 115.11328125 66.66015625 C116.1189917 67.26061768 117.12470215 67.8610791 118.16088867 68.47973633 C120.09190542 69.63300232 122.02058098 70.79020031 123.9465332 71.9519043 C124.81238037 72.46793213 125.67822754 72.98395996 126.5703125 73.515625 C127.71137451 74.20060059 127.71137451 74.20060059 128.87548828 74.89941406 C131.79859529 76.43369269 131.79859529 76.43369269 135 77 C137.90110517 75.76578506 137.90110517 75.76578506 140.9609375 73.8359375 C141.53881012 73.49273468 142.11668274 73.14953186 142.71206665 72.79592896 C144.60681203 71.66704032 146.49064023 70.52112519 148.375 69.375 C149.69588707 68.58407022 151.01750946 67.79436721 152.33984375 67.00585938 C154.99819351 65.41854853 157.65263958 63.82502256 160.30371094 62.22558594 C165.1827875 59.2836381 170.09109579 56.39180777 175 53.5 C176.7643829 52.45583052 178.52870443 51.41155733 180.29296875 50.3671875 C184.49762205 47.88245006 188.70979374 45.41075511 192.92578125 42.9453125 C193.52656998 42.59393219 194.1273587 42.24255188 194.74635315 41.88052368 C195.35365768 41.52533661 195.96096222 41.17014954 196.58666992 40.80419922 C197.82862387 40.07781758 199.07056718 39.35141775 200.3125 38.625 C200.92848053 38.26472717 201.54446106 37.90445435 202.17910767 37.53326416 C210.71675485 32.53738199 219.21659953 27.48354448 227.6875 22.375 C235.98147881 17.38023531 244.30543738 12.44073226 252.68008423 7.58258057 C254.40568767 6.58096526 256.12901426 5.57543062 257.85229492 4.56982422 C258.88974854 3.97057129 259.92720215 3.37131836 260.99609375 2.75390625 C261.91575928 2.22095947 262.8354248 1.6880127 263.78295898 1.13891602 C266 0 266 0 268 0 C268.30388133 20.33164578 268.53302027 40.66282997 268.67355824 60.99627686 C268.74055222 70.43790664 268.83185645 79.87812438 268.98071289 89.31884766 C269.11041882 97.54894742 269.19418562 105.77802465 269.22315043 114.00911808 C269.2400803 118.36683325 269.27975702 122.72162373 269.37449074 127.07839966 C269.4630229 131.18338738 269.48990241 135.28426019 269.47039986 139.39011192 C269.47396454 140.89310819 269.49967778 142.39624771 269.54967117 143.89841652 C269.69543491 148.50584578 269.60601191 152.61005755 268 157 C264.02263434 160.67361605 259.94033152 162.76201115 255 165 C253.72493713 165.73346681 252.4586031 166.48290093 251.21118164 167.26245117 C250.20434326 167.85002197 249.19750488 168.43759277 248.16015625 169.04296875 C247.59501816 169.37343704 247.02988007 169.70390533 246.44761658 170.04438782 C245.26077594 170.73823202 244.07356607 171.43144504 242.88598633 172.12402344 C239.70474986 173.97935428 236.52642177 175.83965873 233.34765625 177.69921875 C232.71461578 178.06937103 232.08157532 178.43952332 231.42935181 178.82089233 C225.94275332 182.0301526 220.46916848 185.26112785 215 188.5 C205.89073445 193.89231044 196.76052623 199.24847682 187.62579346 204.59747314 C180.44245213 208.80406979 173.26296417 213.01665619 166.10253906 217.26220703 C164.30816499 218.32321984 162.51070773 219.37903853 160.70996094 220.42919922 C156.32271741 222.9923941 152.01528337 225.6236225 147.7734375 228.421875 C146.9273291 228.96086426 146.0812207 229.49985352 145.20947266 230.05517578 C143.62281179 231.06790453 142.05518922 232.11141305 140.51318359 233.19091797 C138.28035441 234.58852426 136.5891896 235.49676835 134 236 C130.24477572 234.9925008 127.24823236 233.09524357 124 231 C122.47512165 230.11258136 120.94910215 229.22712029 119.421875 228.34375 C117.86247387 227.39930759 116.30525737 226.45125068 114.75 225.5 C112.99260413 224.43550979 111.23477596 223.371733 109.4765625 222.30859375 C108.57583008 221.76315918 107.67509766 221.21772461 106.74707031 220.65576172 C102.22340249 217.92917843 97.67471902 215.24531427 93.125 212.5625 C92.20710693 212.02085205 91.28921387 211.4792041 90.34350586 210.92114258 C88.48255329 209.82318219 86.6214694 208.72544433 84.76025391 207.62792969 C80.27631452 204.98341281 75.79431152 202.33562105 71.3125 199.6875 C69.97082764 198.89484741 69.97082764 198.89484741 68.60205078 198.08618164 C60.08456253 193.05271093 51.57317937 188.00894504 43.0637207 182.96191406 C37.64098039 179.74642371 32.21561273 176.53565904 26.78125 173.33984375 C25.31461914 172.47649414 25.31461914 172.47649414 23.81835938 171.59570312 C22.018544 170.53676809 20.21784983 169.47932435 18.41601562 168.42382812 C16.82451819 167.48698921 15.24216902 166.53433102 13.67200184 165.56216526 C11.02087578 163.94993117 11.02087578 163.94993117 8.15547466 162.71382809 C4.92547701 161.0924535 2.54746096 159.57717564 0 157 C-1.60018919 151.94826978 -1.39569497 147.02361797 -1.2487793 141.79321289 C-1.24567367 140.24540428 -1.24742369 138.69757949 -1.25364685 137.14978027 C-1.25679593 132.96088127 -1.19226036 128.77546584 -1.11533332 124.58737493 C-1.04643949 120.20600897 -1.04009751 115.82455779 -1.02705383 111.44273376 C-0.9929008 103.15132073 -0.90268773 94.86150831 -0.79220945 86.57079929 C-0.66913996 77.12968903 -0.60874859 67.6885012 -0.55355966 58.24678814 C-0.43866469 38.83028552 -0.24525917 19.41527156 0 0 Z " fill="#FEFEFE" transform="translate(890,1488)"/>
<path d="M0 0 C2.23803711 1.10058594 2.23803711 1.10058594 4.52734375 2.484375 C5.38980713 3.00032227 6.25227051 3.51626953 7.14086914 4.04785156 C8.52520142 4.89041504 8.52520142 4.89041504 9.9375 5.75 C11.93479713 6.94808123 13.93219565 8.14599345 15.9296875 9.34375 C16.94514648 9.95605469 17.96060547 10.56835938 19.00683594 11.19921875 C23.51021313 13.90859152 28.03583013 16.57978991 32.5625 19.25 C33.4505835 19.7749707 34.33866699 20.29994141 35.25366211 20.84082031 C43.61731886 25.78281428 51.99957393 30.69297042 60.38235474 35.60241699 C68.26443241 40.21890327 76.13932306 44.84713229 84 49.5 C92.80035558 54.70827175 101.61605877 59.89005318 110.4375 65.0625 C111.06487061 65.43052734 111.69224121 65.79855469 112.33862305 66.17773438 C118.54154676 69.81604266 124.74428195 73.45294338 131 77 C131 77.66 131 78.32 131 79 C130.43418213 79.31525635 129.86836426 79.6305127 129.28540039 79.95532227 C116.91672803 86.86121594 104.67614535 93.94148675 92.55297852 101.26977539 C85.08731328 105.77312176 77.56377027 110.16369497 70 114.5 C60.35912575 120.02956881 50.80312537 125.68448398 41.28686523 131.42553711 C32.95006459 136.44876515 24.55885439 141.37351243 16.14013672 146.25805664 C15.21861816 146.79293701 14.29709961 147.32781738 13.34765625 147.87890625 C12.45965332 148.3908252 11.57165039 148.90274414 10.65673828 149.43017578 C8.82821497 150.510621 7.01996761 151.62588707 5.22998047 152.76904297 C4.34842285 153.32865723 3.46686523 153.88827148 2.55859375 154.46484375 C1.77669678 154.97523193 0.9947998 155.48562012 0.18920898 156.01147461 C-2 157 -2 157 -3.93798828 156.84985352 C-6.61594216 155.74614082 -9.04608376 154.39447682 -11.55078125 152.9375 C-13.17487915 151.99692749 -13.17487915 151.99692749 -14.83178711 151.03735352 C-15.9921398 150.35843229 -17.15237493 149.6793101 -18.3125 149 C-19.50836965 148.30430474 -20.70441556 147.6089124 -21.90063477 146.91381836 C-28.92279494 142.82722063 -35.91522935 138.69331183 -42.8671875 134.48828125 C-48.57744996 131.03949432 -54.32251887 127.64899328 -60.0625 124.25 C-60.64694885 123.90384644 -61.23139771 123.55769287 -61.83355713 123.2010498 C-69.65745177 118.5674419 -77.48409012 113.93847528 -85.3125 109.3125 C-86.63954956 108.52818604 -86.63954956 108.52818604 -87.9934082 107.72802734 C-92.53372345 105.04532162 -97.076019 102.36604112 -101.62109375 99.69140625 C-113.14866745 92.9025147 -124.60975133 86.01695567 -136 79 C-134.75982199 75.27946597 -133.76804114 74.99792013 -130.42578125 73.1015625 C-129.45987061 72.54678223 -128.49395996 71.99200195 -127.4987793 71.42041016 C-126.44730713 70.8279248 -125.39583496 70.23543945 -124.3125 69.625 C-122.09598908 68.35480354 -119.87985067 67.08395684 -117.6640625 65.8125 C-116.54161133 65.17183594 -115.41916016 64.53117188 -114.26269531 63.87109375 C-109.54513612 61.16566321 -104.8645446 58.39970198 -100.1875 55.625 C-99.30231689 55.10115723 -98.41713379 54.57731445 -97.50512695 54.03759766 C-94.66945408 52.35946073 -91.83463571 50.67988822 -89 49 C-87.93346191 48.36803711 -86.86692383 47.73607422 -85.76806641 47.08496094 C-81.19155479 44.37310125 -76.61515376 41.66105526 -72.0390625 38.94848633 C-64.92470666 34.73168919 -57.80781371 30.51922883 -50.6875 26.3125 C-49.80586182 25.79147705 -48.92422363 25.2704541 -48.01586914 24.73364258 C-43.41358339 22.01439847 -38.80944476 19.29834289 -34.203125 16.5859375 C-33.2450293 16.02108643 -32.28693359 15.45623535 -31.29980469 14.87426758 C-29.41861864 13.76567713 -27.53648408 12.65869436 -25.65332031 11.5534668 C-21.69410522 9.22208105 -17.75939328 6.87467359 -13.90625 4.37109375 C-13.01015015 3.79355347 -13.01015015 3.79355347 -12.09594727 3.2043457 C-10.57489849 2.21442128 -9.06608577 1.20576169 -7.55859375 0.1953125 C-4.4053639 -1.27779946 -3.30259398 -0.91909494 0 0 Z " fill="#FEFEFE" transform="translate(1027,596)"/>
<path d="M0 0 C0.3038768 20.46203245 0.53301813 40.92360628 0.67355824 61.38742828 C0.74055313 70.88958726 0.83185928 80.39034326 0.98071289 89.89160156 C1.11041581 98.17443897 1.19418496 106.45626041 1.22315043 114.74008512 C1.24008075 119.1257377 1.27976086 123.50848434 1.37449074 127.89320374 C1.46301785 132.02444943 1.48990325 136.15160636 1.47039986 140.28371048 C1.47396474 141.79638063 1.49968058 143.30919302 1.54967117 144.82104111 C1.69525527 149.45267317 1.60085938 153.58281053 0 158 C-3.9639151 161.69882639 -8.06465135 163.73887061 -13 166 C-14.84534139 167.06142258 -16.68120084 168.13980611 -18.5 169.24609375 C-20.332473 170.31137713 -22.16583746 171.37512824 -24 172.4375 C-26.1004395 173.65854616 -28.20069161 174.87991471 -30.30078125 176.1015625 C-31.39213379 176.73610352 -32.48348633 177.37064453 -33.60791016 178.02441406 C-39.47499192 181.44145924 -45.33110237 184.8771868 -51.1875 188.3125 C-52.41039123 189.02963802 -53.63329166 189.74676034 -54.85620117 190.46386719 C-58.57096724 192.64229436 -62.28550453 194.82111145 -66 197 C-70.32736809 199.53839395 -74.65483494 202.07661923 -78.98257446 204.61437988 C-80.19906867 205.32776651 -81.41551993 206.04122638 -82.63192749 206.75476074 C-88.98184553 210.47942871 -95.33505183 214.19814378 -101.69921875 217.8984375 C-102.7569751 218.51356201 -103.81473145 219.12868652 -104.90454102 219.76245117 C-106.92957348 220.94003335 -108.95479381 222.11729254 -110.98022461 223.29418945 C-117.33084251 226.99494065 -123.60637129 230.79179397 -129.8046875 234.7421875 C-132 236 -132 236 -134 236 C-134.56198454 215.64267438 -134.98448462 195.28693219 -135.24349213 174.92344475 C-135.36698622 165.46666289 -135.53512486 156.01471308 -135.81054688 146.56103516 C-136.0506562 138.31547226 -136.20478813 130.07340733 -136.25812387 121.82444584 C-136.28929174 117.45894664 -136.36177843 113.10344697 -136.53752136 108.74117661 C-137.56109005 82.31652131 -137.56109005 82.31652131 -131.70907593 75.22309113 C-126.08120516 70.58643182 -119.89319633 67.80298842 -113.10891724 65.26245499 C-108.03970601 63.20397272 -103.5097911 60.3177774 -98.875 57.4375 C-97.05562928 56.3555927 -95.2342732 55.27701073 -93.41015625 54.203125 C-92.06655029 53.40745117 -92.06655029 53.40745117 -90.69580078 52.59570312 C-87.13475875 50.48784488 -83.57151833 48.38371886 -80.00830078 46.27954102 C-70.25818056 40.52147781 -60.5149487 34.75183604 -50.77468872 28.97711182 C-44.82628934 25.4504846 -38.87690576 21.92557687 -32.921875 18.41015625 C-31.97022461 17.8483667 -31.01857422 17.28657715 -30.03808594 16.70776367 C-28.20830278 15.62799934 -26.37823399 14.54871886 -24.54785156 13.4699707 C-20.47628222 11.06747061 -16.4138644 8.65246273 -12.375 6.1953125 C-11.67213867 5.76855225 -10.96927734 5.34179199 -10.24511719 4.90209961 C-8.95687541 4.11783592 -7.67089112 3.32984637 -6.38769531 2.53735352 C-2.22017823 0 -2.22017823 0 0 0 Z " fill="#FEFEFD" transform="translate(1388,1081)"/>
<path d="M0 0 C3.62289725 1.41597822 6.92646896 3.00117212 10.296875 4.94921875 C11.83855347 5.83843018 11.83855347 5.83843018 13.41137695 6.74560547 C14.51312256 7.38643066 15.61486816 8.02725586 16.75 8.6875 C17.91688267 9.36349258 19.08379398 10.03943573 20.25073242 10.71533203 C29.0165591 15.80280462 37.71499447 20.99928996 46.39404297 26.23339844 C54.35306719 31.02840976 62.35375122 35.74771604 70.375 40.4375 C101.9169254 58.88196045 101.9169254 58.88196045 107.96482849 62.74368286 C111.01737099 64.58136701 114.07302669 65.79107289 117.42399597 66.99143982 C123.90526375 69.59446343 129.59127194 72.44033899 134 78 C137.77946867 88.42675481 136.63290922 100.31254146 136.23066664 111.2229178 C136.0922234 115.61569309 136.0801473 120.00886815 136.05410767 124.40348816 C135.9859786 132.7076485 135.80584573 141.0053642 135.58441889 149.30669755 C135.33768315 158.76418668 135.21735663 168.22199999 135.10711932 177.68191111 C134.87774188 197.12491569 134.49132491 216.56193829 134 236 C130.57726603 234.65980463 127.45073064 233.20573731 124.28125 231.33984375 C122.90610229 230.53389771 122.90610229 230.53389771 121.50317383 229.71166992 C120.51212646 229.12619385 119.5210791 228.54071777 118.5 227.9375 C116.92351685 227.01191284 116.92351685 227.01191284 115.31518555 226.06762695 C113.04962812 224.73721944 110.7847957 223.40565456 108.52099609 222.07226562 C105.01306079 220.0066398 101.5011715 217.94781025 97.98828125 215.890625 C93.13320003 213.04712998 88.27893799 210.20224731 83.42578125 207.35546875 C76.71926736 203.42165317 70.01186927 199.48934787 63.3041687 195.55755615 C61.5036158 194.50211949 59.70309583 193.44662665 57.90258789 192.39111328 C51.0728723 188.3873333 44.24285121 184.38407518 37.41253662 180.38131714 C32.00096429 177.20986267 26.59029119 174.03687617 21.1796875 170.86376953 C18.26657286 169.15625132 15.35225079 167.45081695 12.4375 165.74609375 C10.87497527 164.83077138 9.31247305 163.91541058 7.75 163 C7.05874023 162.596604 6.36748047 162.19320801 5.65527344 161.77758789 C1.11350592 159.11350592 1.11350592 159.11350592 0 158 C-0.09678239 155.96238813 -0.12186965 153.92136288 -0.12025452 151.88145447 C-0.12110894 151.23539877 -0.12196337 150.58934307 -0.12284368 149.92370993 C-0.12450024 147.74330183 -0.11897429 145.56296945 -0.11352539 143.38256836 C-0.11324353 141.82579042 -0.11340123 140.26901236 -0.1139679 138.7122345 C-0.11425592 134.47274796 -0.10835846 130.23328946 -0.10139394 125.99380946 C-0.09516115 121.5681858 -0.09455666 117.14256157 -0.09336853 112.7169342 C-0.09025499 104.33046022 -0.0820413 95.9439992 -0.07201904 87.55753094 C-0.0608586 78.01234651 -0.05534763 68.46716148 -0.05032361 58.92197216 C-0.03985871 39.28130752 -0.02225883 19.64065458 0 0 Z " fill="#FEFEFD" transform="translate(660,1081)"/>
</svg>
